<svg width="413" height="87" viewBox="0 0 413 87" fill="none" xmlns="http://www.w3.org/2000/svg">
<path d="M96.9149 45.7271H11.6449C9.8584 45.7271 8.39953 47.2424 8.56336 49.0311C10.4357 70.2769 30.189 87.0001 54.2799 87.0001C78.3709 87.0001 98.1242 70.2847 99.9965 49.0311C100.153 47.2424 98.7015 45.7271 96.9149 45.7271Z" fill="#FF6633"/>
<path fill-rule="evenodd" clip-rule="evenodd" d="M0.611747 9.05716C4.86009 3.47602 12.5162 0 20.9516 0C29.387 0 37.0431 3.47602 41.2914 9.05716C42.2942 10.3745 42.0374 12.2538 40.7179 13.2549C39.3984 14.256 37.5159 13.9996 36.5132 12.6823C33.5999 8.85516 27.8691 5.99149 20.9516 5.99149C14.0341 5.99149 8.30324 8.85516 5.39003 12.6823C4.3873 13.9996 2.50478 14.256 1.1853 13.2549C-0.134186 12.2538 -0.390974 10.3745 0.611747 9.05716Z" fill="#414141"/>
<path fill-rule="evenodd" clip-rule="evenodd" d="M67.2953 9.05716C71.5437 3.47602 79.1998 0 87.6352 0C96.0642 0 103.718 3.47686 107.973 9.05466C108.977 10.3709 108.722 12.2506 107.404 13.253C106.086 14.2554 104.203 14.0011 103.199 12.6848C100.277 8.85433 94.5435 5.99149 87.6352 5.99149C80.7177 5.99149 74.9868 8.85516 72.0736 12.6823C71.0709 13.9996 69.1884 14.256 67.8689 13.2549C66.5494 12.2538 66.2926 10.3745 67.2953 9.05716Z" fill="#414141"/>
<path d="M157.464 49.5317C156.907 49.9432 156.241 50.2654 155.486 50.5338C154.731 50.8022 154.048 50.9275 153.418 50.9275C151.386 50.9275 149.642 50.2296 148.221 48.8517C146.801 47.4559 146.099 45.7559 146.099 43.7517C146.099 41.7296 146.801 40.0296 148.221 38.6338C149.642 37.2201 151.386 36.5222 153.418 36.5222C154.048 36.5222 154.749 36.6654 155.522 36.9338C156.295 37.2022 156.961 37.5601 157.554 38.0075C158.058 38.3654 158.633 38.3117 158.903 37.9359L161.636 33.9454C161.87 33.6054 161.762 33.0685 161.33 32.7643C160.27 31.9948 158.993 31.3685 157.5 30.8854C156.008 30.3843 154.641 30.1338 153.418 30.1338C151.512 30.1338 149.696 30.4917 147.988 31.2075C146.279 31.9054 144.823 32.8717 143.582 34.0885C142.359 35.2875 141.388 36.7369 140.669 38.419C139.949 40.1012 139.59 41.8727 139.59 43.7517C139.59 45.6306 139.949 47.4022 140.669 49.0843C141.388 50.7664 142.359 52.2159 143.582 53.4148C144.823 54.6138 146.279 55.5801 147.988 56.2959C149.696 56.9938 151.512 57.3517 153.418 57.3517C154.677 57.3517 156.044 57.119 157.518 56.6359C159.011 56.1527 160.234 55.5443 161.205 54.8106C161.654 54.5064 161.852 53.9696 161.636 53.6296L158.957 49.5854C158.669 49.1738 158.022 49.1559 157.464 49.5317Z" fill="#414141"/>
<path d="M164.999 55.8485C164.999 56.439 165.359 56.779 165.952 56.779H183.215C183.808 56.779 184.186 56.4211 184.186 55.8485V51.9832C184.186 51.2496 183.683 50.7664 182.873 50.7664H171.455V46.3106H180.122C180.769 46.3106 181.165 45.9527 181.165 45.3622V41.9622C181.165 41.3359 180.769 40.978 180.122 40.978H171.455V36.6475H182.873C183.503 36.6475 183.826 36.3254 183.826 35.699V31.5833C183.826 30.9927 183.467 30.6348 182.873 30.6348H165.952C165.359 30.6348 164.999 30.9927 164.999 31.5833V55.8485Z" fill="#414141"/>
<path d="M204.254 42.9285C205.747 41.9443 206.682 40.1012 206.682 38.1864C206.682 35.8064 205.909 33.9454 204.38 32.6212C202.852 31.2969 200.712 30.6348 197.943 30.6348H188.502C188.034 30.6348 187.8 30.8675 187.8 31.3148V56.099C187.8 56.5464 188.034 56.779 188.502 56.779H198.698C201.593 56.779 203.841 56.0811 205.441 54.7032C207.06 53.3254 207.869 51.3927 207.869 48.9054C207.869 47.599 207.545 46.4001 206.898 45.3085C206.25 44.2169 205.369 43.4296 204.254 42.9285ZM197.871 36.4506C199.291 36.4506 200.172 37.2917 200.172 38.6517C200.172 40.0117 199.291 40.8706 197.871 40.8706H194.328V36.4506H197.871ZM194.328 50.9632V45.7201H198.608C200.28 45.7201 201.341 46.7043 201.341 48.2969C201.341 49.9254 200.28 50.9632 198.608 50.9632H194.328Z" fill="#414141"/>
<path d="M211.106 55.8485C211.106 56.439 211.465 56.779 212.059 56.779H229.322C229.915 56.779 230.293 56.4211 230.293 55.8485V51.9832C230.293 51.2496 229.789 50.7664 228.98 50.7664H217.561V46.3106H226.229C226.876 46.3106 227.272 45.9527 227.272 45.3622V41.9622C227.272 41.3359 226.876 40.978 226.229 40.978H217.561V36.6475H228.98C229.609 36.6475 229.933 36.3254 229.933 35.699V31.5833C229.933 30.9927 229.573 30.6348 228.98 30.6348H212.059C211.465 30.6348 211.106 30.9927 211.106 31.5833V55.8485Z" fill="#414141"/>
<path d="M239.5 30.6348H237.162H234.842C234.285 30.6348 233.907 31.0464 233.907 31.6012V55.8485C233.907 56.439 234.249 56.7969 234.842 56.7969H239.446C240.075 56.7969 240.435 56.439 240.435 55.8485V48.7264H243.582C246.387 48.7264 248.653 47.9032 250.397 46.2748C252.141 44.6285 253.022 42.4454 253.022 39.7254C253.022 36.9696 252.141 34.7685 250.397 33.1222C248.653 31.458 246.387 30.6348 243.582 30.6348H239.5ZM240.435 42.839V36.5222H243.312C244.229 36.5222 245.002 36.8264 245.596 37.4348C246.207 38.0254 246.513 38.7769 246.513 39.6896C246.513 40.6022 246.207 41.3538 245.596 41.9443C245.002 42.5348 244.229 42.839 243.312 42.839H240.435Z" fill="#414141"/>
<path d="M272.767 30.6348H264.729C261.924 30.6348 259.64 31.458 257.896 33.1222C256.151 34.7685 255.288 36.9696 255.288 39.7075C255.288 42.9822 256.781 45.6843 259.352 47.2054L254.749 55.7054C254.461 56.2243 254.785 56.7969 255.36 56.7969H260.737C261.258 56.7969 261.492 56.618 261.834 55.9917L265.682 48.619H268.361V55.8485C268.361 56.439 268.721 56.7969 269.35 56.7969H273.954C274.547 56.7969 274.889 56.439 274.889 55.8485V31.5833C274.889 31.0285 274.511 30.6348 273.954 30.6348H272.767ZM264.999 43.018C264.082 43.018 263.308 42.6959 262.697 42.0517C262.103 41.3896 261.798 40.6022 261.798 39.6717C261.798 38.7412 262.103 37.9896 262.697 37.399C263.29 36.8085 264.064 36.5043 264.999 36.5043H268.361V43.018H264.999Z" fill="#414141"/>
<path d="M296.27 30.6348C295.82 30.6348 295.587 30.8675 295.587 31.3327V40.3696H285.75V31.3327C285.75 30.8675 285.516 30.6348 285.067 30.6348H279.996C279.528 30.6348 279.295 30.8675 279.295 31.3327V56.099C279.295 56.5643 279.528 56.7969 279.996 56.7969H285.067C285.516 56.7969 285.75 56.5643 285.75 56.099V46.2569H295.587V56.099C295.587 56.5643 295.82 56.7969 296.27 56.7969H301.359C301.808 56.7969 302.042 56.5643 302.042 56.099V31.3327C302.042 30.8675 301.808 30.6348 301.359 30.6348H296.27Z" fill="#414141"/>
<path d="M305.243 43.7696C305.243 45.6306 305.603 47.4022 306.304 49.0843C307.023 50.7485 307.994 52.198 309.199 53.3969C310.422 54.5959 311.879 55.5622 313.569 56.278C315.259 56.9759 317.04 57.3338 318.928 57.3338C321.445 57.3338 323.747 56.7432 325.833 55.5443C327.937 54.3454 329.573 52.699 330.778 50.6232C331.983 48.5475 332.594 46.2569 332.594 43.7696C332.594 41.8906 332.235 40.119 331.515 38.4369C330.814 36.7369 329.843 35.2875 328.62 34.0885C327.415 32.8896 325.959 31.9233 324.268 31.2254C322.596 30.5096 320.816 30.1517 318.928 30.1517C317.04 30.1517 315.259 30.5096 313.569 31.2254C311.879 31.9233 310.422 32.8896 309.199 34.0885C307.994 35.2875 307.023 36.7369 306.304 38.4369C305.603 40.119 305.243 41.8906 305.243 43.7696ZM311.753 43.7696C311.753 41.7654 312.454 40.0833 313.839 38.7054C315.223 37.3275 316.932 36.6296 318.928 36.6296C320.924 36.6296 322.614 37.3275 323.999 38.7054C325.383 40.0833 326.085 41.7654 326.085 43.7696C326.085 45.7559 325.383 47.4201 323.999 48.798C322.614 50.1759 320.924 50.8559 318.928 50.8559C316.914 50.8559 315.205 50.1759 313.821 48.798C312.436 47.4201 311.753 45.7559 311.753 43.7696Z" fill="#414141"/>
<path d="M351.332 30.6169C350.828 30.6169 350.415 31.0643 350.415 31.5833V38.9559C350.415 40.298 349.983 41.3717 349.138 42.1769C348.293 42.9822 347.178 43.3938 345.757 43.3938C342.934 43.3938 341.262 41.7296 341.262 38.9201V31.5833C341.262 31.0285 340.83 30.6169 340.255 30.6169H335.633C335.148 30.6169 334.752 31.0643 334.752 31.5833V38.938C334.752 42.1948 335.723 44.8075 337.665 46.7759C339.607 48.7264 342.125 49.7106 345.218 49.7106C347.232 49.7106 349.12 48.9054 350.415 47.6706V55.8485C350.415 56.3675 350.81 56.779 351.332 56.779H355.989C356.511 56.779 356.924 56.3496 356.924 55.8306V31.5833C356.924 31.0285 356.547 30.6169 356.043 30.6169H351.332Z" fill="#414141"/>
<path d="M376.903 42.9643L385.265 31.8696C385.696 31.2969 385.516 30.6885 384.851 30.6885H378.935C378.305 30.6885 377.964 30.7601 377.55 31.3148L370.735 40.4233H367.84V31.3327C367.84 30.8854 367.606 30.6527 367.156 30.6527H362.031C361.564 30.6527 361.33 30.8854 361.33 31.3327V56.0811C361.33 56.5464 361.564 56.779 362.031 56.779H367.156C367.606 56.779 367.84 56.5464 367.84 56.0811V46.5433H371.544L378.161 56.4211C378.395 56.6896 378.719 56.8327 379.097 56.8327H385.067C385.696 56.8327 385.858 56.2064 385.498 55.6875L376.903 42.9643Z" fill="#414141"/>
<path d="M402.653 31.4938C402.456 30.9748 401.97 30.6169 401.467 30.6169H397.672C397.169 30.6169 396.683 30.9391 396.45 31.4938L386.847 55.7411C386.613 56.3675 386.883 56.7969 387.548 56.7969H392.637C393.195 56.7969 393.662 56.439 393.806 55.938L394.975 52.5201H404.092L405.279 55.9559C405.477 56.4569 405.926 56.8148 406.43 56.8148H411.537C412.238 56.8148 412.472 56.3496 412.238 55.759L402.653 31.4938ZM399.525 39.1885L402.24 47.1159H396.809L399.525 39.1885Z" fill="#414141"/>
</svg>
