<svg width="152" height="32" viewBox="0 0 152 32" fill="none" xmlns="http://www.w3.org/2000/svg">
<path d="M35.6685 16.819H4.28582C3.6283 16.819 3.09138 17.3764 3.15168 18.0343C3.84078 25.8488 11.1108 31.9999 19.9771 31.9999C28.8435 31.9999 36.1135 25.8517 36.8026 18.0343C36.86 17.3764 36.326 16.819 35.6685 16.819Z" fill="#FF6633"/>
<path fill-rule="evenodd" clip-rule="evenodd" d="M0.225147 3.33137C1.7887 1.27854 4.60645 0 7.711 0C10.8155 0 13.6333 1.27854 15.1969 3.33137C15.5659 3.81589 15.4714 4.50716 14.9858 4.87537C14.5001 5.24357 13.8073 5.14928 13.4383 4.66476C12.3661 3.25707 10.2569 2.20377 7.711 2.20377C5.16509 2.20377 3.05591 3.25707 1.98374 4.66476C1.6147 5.14928 0.921857 5.24357 0.436236 4.87537C-0.0493858 4.50716 -0.143894 3.81589 0.225147 3.33137Z" fill="#414141"/>
<path fill-rule="evenodd" clip-rule="evenodd" d="M24.7673 3.33137C26.3308 1.27854 29.1486 0 32.2531 0C35.3554 0 38.1723 1.27884 39.7383 3.33045C40.1078 3.81458 40.0141 4.50596 39.5288 4.87467C39.0436 5.24338 38.3507 5.14981 37.9811 4.66568C36.9057 3.25676 34.7957 2.20377 32.2531 2.20377C29.7072 2.20377 27.5981 3.25707 26.5259 4.66476C26.1568 5.14928 25.464 5.24357 24.9784 4.87537C24.4928 4.50716 24.3983 3.81589 24.7673 3.33137Z" fill="#414141"/>
<path d="M57.953 18.2185C57.7478 18.3699 57.5029 18.4884 57.225 18.5871C56.947 18.6859 56.6955 18.7319 56.4639 18.7319C55.716 18.7319 55.0741 18.4752 54.5512 17.9684C54.0284 17.455 53.7703 16.8297 53.7703 16.0926C53.7703 15.3488 54.0284 14.7235 54.5512 14.2101C55.0741 13.6901 55.716 13.4334 56.4639 13.4334C56.6955 13.4334 56.9536 13.4861 57.2382 13.5848C57.5228 13.6836 57.7677 13.8152 57.9861 13.9797C58.1714 14.1114 58.3832 14.0916 58.4824 13.9534L59.4884 12.4856C59.5744 12.3606 59.5347 12.1631 59.3759 12.0512C58.9854 11.7682 58.5155 11.5378 57.9662 11.3601C57.4169 11.1758 56.9139 11.0837 56.4639 11.0837C55.7623 11.0837 55.0939 11.2153 54.4652 11.4786C53.8365 11.7353 53.3004 12.0907 52.8437 12.5383C52.3937 12.9793 52.0363 13.5124 51.7716 14.1311C51.5068 14.7498 51.3745 15.4015 51.3745 16.0926C51.3745 16.7837 51.5068 17.4353 51.7716 18.054C52.0363 18.6727 52.3937 19.2058 52.8437 19.6468C53.3004 20.0878 53.8365 20.4432 54.4652 20.7065C55.0939 20.9632 55.7623 21.0949 56.4639 21.0949C56.9271 21.0949 57.4301 21.0093 57.9728 20.8316C58.5221 20.6539 58.9722 20.4301 59.3296 20.1602C59.495 20.0483 59.5678 19.8509 59.4884 19.7258L58.5023 18.2383C58.3964 18.0869 58.1581 18.0803 57.953 18.2185Z" fill="#414141"/>
<path d="M60.726 20.542C60.726 20.7592 60.8584 20.8842 61.0768 20.8842H67.4302C67.6486 20.8842 67.7876 20.7526 67.7876 20.542V19.1203C67.7876 18.8504 67.6023 18.6727 67.3045 18.6727H63.1019V17.0338H66.2919C66.5302 17.0338 66.6758 16.9021 66.6758 16.6849V15.4344C66.6758 15.204 66.5302 15.0724 66.2919 15.0724H63.1019V13.4795H67.3045C67.5361 13.4795 67.6552 13.361 67.6552 13.1307V11.6168C67.6552 11.3996 67.5229 11.268 67.3045 11.268H61.0768C60.8584 11.268 60.726 11.3996 60.726 11.6168V20.542Z" fill="#414141"/>
<path d="M75.1735 15.7898C75.7228 15.4278 76.067 14.7498 76.067 14.0456C76.067 13.1702 75.7824 12.4856 75.2198 11.9986C74.6573 11.5115 73.8697 11.268 72.8505 11.268H69.376C69.2039 11.268 69.1179 11.3535 69.1179 11.5181V20.6341C69.1179 20.7987 69.2039 20.8842 69.376 20.8842H73.1285C74.194 20.8842 75.0213 20.6275 75.6103 20.1207C76.206 19.6139 76.5038 18.9031 76.5038 17.9882C76.5038 17.5077 76.3846 17.0667 76.1464 16.6652C75.9081 16.2637 75.5838 15.9741 75.1735 15.7898ZM72.8241 13.4071C73.3469 13.4071 73.6712 13.7165 73.6712 14.2167C73.6712 14.7169 73.3469 15.0329 72.8241 15.0329H71.5203V13.4071H72.8241ZM71.5203 18.7451V16.8166H73.0954C73.7109 16.8166 74.1014 17.1786 74.1014 17.7644C74.1014 18.3633 73.7109 18.7451 73.0954 18.7451H71.5203Z" fill="#414141"/>
<path d="M77.695 20.542C77.695 20.7592 77.8274 20.8842 78.0458 20.8842H84.3993C84.6177 20.8842 84.7567 20.7526 84.7567 20.542V19.1203C84.7567 18.8504 84.5714 18.6727 84.2735 18.6727H80.071V17.0338H83.261C83.4992 17.0338 83.6448 16.9021 83.6448 16.6849V15.4344C83.6448 15.204 83.4992 15.0724 83.261 15.0724H80.071V13.4795H84.2735C84.5052 13.4795 84.6243 13.361 84.6243 13.1307V11.6168C84.6243 11.3996 84.4919 11.268 84.2735 11.268H78.0458C77.8274 11.268 77.695 11.3996 77.695 11.6168V20.542Z" fill="#414141"/>
<path d="M88.1452 11.268H87.2848H86.4311C86.2259 11.268 86.0869 11.4194 86.0869 11.6234V20.542C86.0869 20.7592 86.2127 20.8908 86.4311 20.8908H88.1253C88.357 20.8908 88.4893 20.7592 88.4893 20.542V17.9223H89.6475C90.6799 17.9223 91.5138 17.6196 92.1558 17.0206C92.7978 16.4151 93.1221 15.6121 93.1221 14.6116C93.1221 13.598 92.7978 12.7884 92.1558 12.1829C91.5138 11.5707 90.6799 11.268 89.6475 11.268H88.1452ZM88.4893 15.7569V13.4334H89.5482C89.8858 13.4334 90.1703 13.5453 90.3887 13.7691C90.6138 13.9863 90.7263 14.2628 90.7263 14.5984C90.7263 14.9341 90.6138 15.2106 90.3887 15.4278C90.1703 15.645 89.8858 15.7569 89.5482 15.7569H88.4893Z" fill="#414141"/>
<path d="M100.389 11.268H97.4305C96.3981 11.268 95.5576 11.5707 94.9156 12.1829C94.2736 12.7884 93.956 13.598 93.956 14.605C93.956 15.8095 94.5053 16.8034 95.4517 17.3629L93.7574 20.4893C93.6515 20.6802 93.7706 20.8908 93.9824 20.8908H95.9613C96.1532 20.8908 96.2392 20.825 96.365 20.5946L97.7813 17.8829H98.7674V20.542C98.7674 20.7592 98.8997 20.8908 99.1314 20.8908H100.826C101.044 20.8908 101.17 20.7592 101.17 20.542V11.6168C101.17 11.4128 101.031 11.268 100.826 11.268H100.389ZM97.5298 15.8227C97.1923 15.8227 96.9077 15.7042 96.6827 15.4673C96.4643 15.2237 96.3517 14.9341 96.3517 14.5919C96.3517 14.2496 96.4643 13.9732 96.6827 13.756C96.9011 13.5388 97.1856 13.4269 97.5298 13.4269H98.7674V15.8227H97.5298Z" fill="#414141"/>
<path d="M109.039 11.268C108.873 11.268 108.787 11.3535 108.787 11.5247V14.8486H105.167V11.5247C105.167 11.3535 105.081 11.268 104.916 11.268H103.049C102.877 11.268 102.791 11.3535 102.791 11.5247V20.6341C102.791 20.8052 102.877 20.8908 103.049 20.8908H104.916C105.081 20.8908 105.167 20.8052 105.167 20.6341V17.014H108.787V20.6341C108.787 20.8052 108.873 20.8908 109.039 20.8908H110.912C111.077 20.8908 111.163 20.8052 111.163 20.6341V11.5247C111.163 11.3535 111.077 11.268 110.912 11.268H109.039Z" fill="#414141"/>
<path d="M112.341 16.0991C112.341 16.7837 112.474 17.4353 112.732 18.054C112.997 18.6661 113.354 19.1992 113.797 19.6402C114.247 20.0812 114.783 20.4367 115.406 20.6999C116.028 20.9566 116.683 21.0883 117.378 21.0883C118.304 21.0883 119.151 20.8711 119.919 20.4301C120.693 19.9891 121.296 19.3835 121.739 18.62C122.183 17.8565 122.408 17.014 122.408 16.0991C122.408 15.408 122.275 14.7564 122.01 14.1377C121.752 13.5124 121.395 12.9793 120.945 12.5383C120.502 12.0973 119.965 11.7419 119.343 11.4852C118.728 11.2219 118.073 11.0903 117.378 11.0903C116.683 11.0903 116.028 11.2219 115.406 11.4852C114.783 11.7419 114.247 12.0973 113.797 12.5383C113.354 12.9793 112.997 13.5124 112.732 14.1377C112.474 14.7564 112.341 15.408 112.341 16.0991ZM114.737 16.0991C114.737 15.362 114.995 14.7433 115.505 14.2364C116.014 13.7296 116.643 13.4729 117.378 13.4729C118.112 13.4729 118.734 13.7296 119.244 14.2364C119.754 14.7433 120.012 15.362 120.012 16.0991C120.012 16.8297 119.754 17.4419 119.244 17.9487C118.734 18.4555 118.112 18.7056 117.378 18.7056C116.637 18.7056 116.008 18.4555 115.498 17.9487C114.989 17.4419 114.737 16.8297 114.737 16.0991Z" fill="#414141"/>
<path d="M129.304 11.2614C129.118 11.2614 128.966 11.4259 128.966 11.6168V14.3286C128.966 14.8222 128.807 15.2172 128.496 15.5133C128.185 15.8095 127.775 15.9609 127.252 15.9609C126.213 15.9609 125.598 15.3488 125.598 14.3154V11.6168C125.598 11.4128 125.439 11.2614 125.227 11.2614H123.526C123.347 11.2614 123.202 11.4259 123.202 11.6168V14.322C123.202 15.5199 123.559 16.4809 124.274 17.2049C124.989 17.9223 125.915 18.2844 127.054 18.2844C127.795 18.2844 128.49 17.9882 128.966 17.534V20.542C128.966 20.7328 129.112 20.8842 129.304 20.8842H131.018C131.21 20.8842 131.362 20.7263 131.362 20.5354V11.6168C131.362 11.4128 131.223 11.2614 131.038 11.2614H129.304Z" fill="#414141"/>
<path d="M138.715 15.803L141.792 11.7221C141.951 11.5115 141.885 11.2877 141.64 11.2877H139.463C139.231 11.2877 139.105 11.314 138.953 11.5181L136.445 14.8683H135.379V11.5247C135.379 11.3601 135.293 11.2746 135.128 11.2746H133.242C133.069 11.2746 132.983 11.3601 132.983 11.5247V20.6275C132.983 20.7987 133.069 20.8842 133.242 20.8842H135.128C135.293 20.8842 135.379 20.7987 135.379 20.6275V17.1193H136.743L139.178 20.7526C139.264 20.8513 139.383 20.904 139.522 20.904H141.719C141.951 20.904 142.011 20.6736 141.878 20.4827L138.715 15.803Z" fill="#414141"/>
<path d="M148.192 11.5839C148.119 11.393 147.941 11.2614 147.755 11.2614H146.359C146.174 11.2614 145.995 11.3799 145.909 11.5839L142.375 20.5025C142.289 20.7328 142.388 20.8908 142.633 20.8908H144.506C144.711 20.8908 144.883 20.7592 144.936 20.5749L145.366 19.3177H148.722L149.158 20.5815C149.231 20.7658 149.397 20.8974 149.582 20.8974H151.461C151.72 20.8974 151.806 20.7263 151.72 20.5091L148.192 11.5839ZM147.041 14.4142L148.04 17.33H146.041L147.041 14.4142Z" fill="#414141"/>
</svg>
