<svg xmlns="http://www.w3.org/2000/svg" width="18" height="18" viewBox="0 0 18 18" fill="none">
<path fill-rule="evenodd" clip-rule="evenodd" d="M9.37403 2.62502C8.44319 2.62259 7.52495 2.84007 6.69408 3.25975L6.69266 3.26046L6.69266 3.26046C4.66019 4.27625 3.37589 6.353 3.37501 8.62517L3.37501 8.626C3.37258 9.55684 3.59006 10.4751 4.00973 11.306C4.05481 11.3952 4.06238 11.4988 4.03077 11.5936L2.84294 15.1571L6.40642 13.9693C6.50128 13.9376 6.60483 13.9452 6.69408 13.9903C7.52495 14.41 8.44319 14.6274 9.37403 14.625L9.37486 14.625C11.647 14.6241 13.7238 13.3398 14.7396 11.3074L14.7403 11.306C15.16 10.4751 15.3774 9.55684 15.375 8.626L15.75 8.62502H15.375V8.26051C15.2023 5.22265 12.7774 2.79772 9.73952 2.62502H9.37501L9.37403 2.62502ZM16.125 8.62404C16.125 8.62423 16.125 8.62441 16.125 8.6246C16.1277 9.67307 15.8827 10.7074 15.4101 11.6433C14.2673 13.9293 11.9314 15.3739 9.37557 15.375C8.37949 15.3776 7.3962 15.1566 6.49789 14.7293L2.3686 16.1058C2.23385 16.1507 2.08528 16.1156 1.98485 16.0152C1.88441 15.9147 1.84934 15.7662 1.89425 15.6314L3.27069 11.5021C2.8434 10.6038 2.62248 9.62055 2.62501 8.62446C2.62501 8.62432 2.62501 8.62418 2.62501 8.62404L3.00001 8.62502L2.62501 8.62488C2.62501 8.62474 2.62501 8.6246 2.62501 8.62446C2.62616 6.0687 4.07066 3.73277 6.35665 2.58994C6.35641 2.59006 6.35618 2.59018 6.35594 2.5903L6.52501 2.92502L6.35736 2.58958C6.35713 2.5897 6.35689 2.58982 6.35665 2.58994C7.29262 2.11732 8.32696 1.87237 9.37549 1.87502H9.75001C9.7569 1.87502 9.76379 1.87521 9.77067 1.87559C13.1984 2.06469 15.9353 4.80165 16.1244 8.22936C16.1248 8.23624 16.125 8.24313 16.125 8.25002L16.125 8.62404ZM9.37557 15.375C9.37543 15.375 9.37529 15.375 9.37516 15.375L9.37501 15L9.37599 15.375C9.37585 15.375 9.37571 15.375 9.37557 15.375Z" fill="white"/>
</svg>