<svg width="0" height="0"><symbol xmlns="http://www.w3.org/2000/svg" id="logo-no-text" fill="none" viewBox="0 0 127 103"><path fill="currentColor" d="M113.091 54.48H13.773c-2.083 0-3.776 1.766-3.595 3.84 2.177 24.693 25.188 44.124 53.25 44.124 28.064 0 51.074-19.431 53.251-44.124.188-2.074-1.505-3.84-3.588-3.84ZM45.504 17.532a3.659 3.659 0 0 1-2.93-1.45C38.946 11.316 32.054 8.35 24.59 8.35c-7.464 0-14.357 2.96-17.985 7.732a3.677 3.677 0 0 1-5.153.698 3.67 3.67 0 0 1-.699-5.148C5.818 4.973 14.726 1 24.59 1s18.772 3.973 23.844 10.632a3.674 3.674 0 0 1-2.93 5.9Zm77.678 0a3.66 3.66 0 0 1-2.929-1.45c-3.628-4.766-10.521-7.732-17.985-7.732-7.464 0-14.357 2.96-17.985 7.732a3.677 3.677 0 0 1-5.153.698 3.67 3.67 0 0 1-.7-5.148C83.498 4.973 92.406 1 102.269 1c9.863 0 18.771 3.973 23.844 10.632a3.675 3.675 0 0 1-2.93 5.9Z"/></symbol><symbol xmlns="http://www.w3.org/2000/svg" id="logo-text-down" fill="none" viewBox="0 0 65 44"><path fill="currentColor" d="M45.492 14.262H17.975c-.577 0-1.046.47-.996 1.024.603 6.584 6.978 11.766 14.753 11.766s14.15-5.182 14.754-11.766c.052-.553-.417-1.024-.994-1.024ZM26.765 4.408c-.307 0-.612-.132-.811-.386C24.949 2.75 23.039 1.96 20.97 1.96c-2.068 0-3.978.79-4.983 2.062-.34.431-.98.513-1.428.186a.954.954 0 0 1-.193-1.373C15.77 1.06 18.238 0 20.97 0s5.2 1.06 6.606 2.835a.956.956 0 0 1-.194 1.373 1.04 1.04 0 0 1-.617.2Zm21.523 0c-.307 0-.613-.132-.812-.386-1.005-1.271-2.915-2.062-4.983-2.062-2.068 0-3.977.79-4.983 2.062-.34.431-.98.513-1.427.186a.954.954 0 0 1-.194-1.373C37.293 1.06 39.761 0 42.493 0c2.733 0 5.201 1.06 6.606 2.835a.956.956 0 0 1-.193 1.373 1.04 1.04 0 0 1-.618.2ZM3.352 30.003l-.4 1.019c-.036.084-.164.118-.283.077a2.865 2.865 0 0 1-.847-.428 3.028 3.028 0 0 1-.694-.648 3.133 3.133 0 0 1-.54-1.122 3.049 3.049 0 0 1-.054-1.178c.061-.38.203-.746.422-1.097.222-.351.507-.65.864-.897a3.22 3.22 0 0 1 1.156-.507 3.218 3.218 0 0 1 1.217-.04c.4.064.78.202 1.145.418.369.215.683.498.942.843.166.222.305.503.413.838.112.335.168.648.166.941.002.118-.086.208-.183.211l-1.128.03c-.108 0-.197-.096-.197-.234a1.593 1.593 0 0 0-.072-.51 1.42 1.42 0 0 0-.209-.435 1.656 1.656 0 0 0-1.107-.664 1.669 1.669 0 0 0-1.259.288c-.38.264-.607.614-.677 1.056-.067.439.037.847.314 1.216.086.114.203.222.356.322.154.102.305.179.46.227.15.047.234.167.195.274Zm4.503-1.167c.093-.098.212-.102.312-.012l2.897 2.56c.102.089.106.203.013.3l-.652.68c-.098.104-.205.107-.313.013l-1.954-1.728-.685.716 1.484 1.312c.111.099.122.217.022.32l-.538.563c-.093.098-.218.096-.328 0L6.63 32.248l-.704.737 1.955 1.727c.137.122.149.28.031.4l-.61.638c-.091.095-.212.097-.313.008l-2.956-2.61c-.102-.09-.11-.2-.016-.299l3.838-4.013Zm6.265 8.421a1.514 1.514 0 0 1-.253.8c-.307.475-.705.747-1.195.818-.486.074-1.016-.059-1.588-.402l-2.012-1.207c-.093-.055-.11-.127-.054-.213l3.064-4.725c.056-.086.13-.102.222-.046l1.863 1.117c.545.327.886.706 1.024 1.14.137.433.06.878-.235 1.333-.236.365-.65.605-1.065.618.16.229.237.483.23.767Zm-2.334.099c.33.198.668.125.87-.184.197-.305.11-.618-.222-.815l-.845-.506-.648.998.845.507Zm.951-3.274-.547.843.698.42c.281.167.56.108.728-.151.167-.26.098-.525-.183-.693l-.696-.419Zm4.228 1.105c.052-.124.16-.169.288-.118l3.65 1.408c.129.05.175.154.123.278l-.357.857c-.054.13-.153.17-.289.118l-2.464-.95-.376.902 1.87.721c.14.054.194.161.14.292l-.296.709c-.052.123-.167.164-.307.11l-1.87-.72-.388.928 2.465.95c.175.069.242.21.177.364l-.337.805c-.05.12-.162.163-.29.113l-3.725-1.437c-.129-.05-.177-.15-.125-.274l2.11-5.056Zm7.512 2.158c.637.134 1.111.424 1.424.873.313.446.404.97.265 1.575-.136.598-.447 1.035-.926 1.312-.478.274-1.033.346-1.671.212l-.715-.15-.357 1.562c-.03.129-.129.191-.272.16l-1.046-.22c-.134-.028-.194-.123-.166-.252l1.216-5.32a.212.212 0 0 1 .26-.167l.527.11.53.113.931.192Zm-.674 2.665a.752.752 0 0 0 .564-.086c.17-.1.276-.25.322-.45a.65.65 0 0 0-.095-.54.705.705 0 0 0-.472-.31l-.654-.137-.316 1.387.651.136Zm7.975-1.879c.13.007.212.1.205.224L31.67 43.8c-.008.132-.091.209-.23.2l-1.068-.057c-.147-.007-.225-.093-.217-.226l.093-1.621-.622-.032-.988 1.607c-.088.136-.144.173-.265.166l-1.249-.066c-.134-.007-.2-.14-.128-.252l1.178-1.851c-.577-.372-.89-.997-.847-1.733.035-.614.264-1.097.69-1.446.427-.352.969-.508 1.62-.474l1.867.098.274.018ZM30.32 40.84l.084-1.462-.78-.041a.747.747 0 0 0-.545.172.684.684 0 0 0-.239.499.751.751 0 0 0 .18.544.715.715 0 0 0 .52.245l.78.043Zm8.065-3.287c.105-.013.164.034.177.138l.689 5.527c.013.103-.035.16-.138.173l-1.174.136c-.105.013-.164-.034-.177-.138l-.274-2.196-2.27.262.273 2.196c.013.104-.035.16-.138.173l-1.17.135c-.109.012-.168-.034-.181-.138l-.689-5.527c-.013-.104.035-.161.143-.174l1.171-.134c.104-.013.164.034.177.138l.251 2.017 2.271-.261-.251-2.018c-.013-.103.035-.16.138-.173l1.172-.136Zm1.913 1.424a2.93 2.93 0 0 1 .32-1.13c.183-.343.434-.65.756-.919.32-.272.687-.472 1.104-.605a3.24 3.24 0 0 1 1.258-.145c.425.03.817.134 1.17.306.358.17.68.412.96.725.282.308.49.66.629 1.061a2.92 2.92 0 0 1 .102 1.59 2.9 2.9 0 0 1-.732 1.398 3.162 3.162 0 0 1-1.394.866 3.333 3.333 0 0 1-2.436-.157 3.179 3.179 0 0 1-.955-.718 3.058 3.058 0 0 1-.624-1.06c-.14-.4-.19-.803-.158-1.212Zm2.42 1.683a1.67 1.67 0 0 0 1.279.08 1.6 1.6 0 0 0 .97-.794c.204-.392.238-.795.09-1.22a1.564 1.564 0 0 0-.831-.933 1.665 1.665 0 0 0-1.272-.088c-.44.14-.767.408-.971.8-.205.392-.237.8-.09 1.226.145.426.42.732.825.929Zm7.729-7.886c.1-.056.225-.018.29.09l2.83 4.718c.061.1.028.23-.078.288l-.938.519a.218.218 0 0 1-.294-.079l-.955-1.591a1.72 1.72 0 0 1-.808.977c-.624.346-1.245.435-1.863.272-.62-.166-1.121-.565-1.5-1.199l-.859-1.432c-.061-.1-.033-.233.065-.286l.931-.516c.115-.064.251-.032.315.075l.856 1.429c.327.546.858.683 1.428.368.286-.159.461-.363.538-.613.076-.251.037-.509-.12-.77l-.86-1.436a.207.207 0 0 1 .073-.29l.95-.524Zm9.284-.174c.144.034.212.163.105.256l-1.035.89a.286.286 0 0 1-.227.07l-2.686-.67-.643.551 1.486 1.599c.072.078.069.152-.01.218l-.887.764c-.082.07-.159.067-.231-.012l-3.853-4.147c-.07-.075-.066-.149.015-.219l.888-.764c.078-.066.154-.063.225.013l1.414 1.523.503-.432-.236-2.541c-.015-.154.033-.217.143-.312l1.026-.88c.115-.099.241-.024.255.136l.277 3.105 3.471.852Zm4.614-5.928c.144.034.201.136.108.265l-.683.934c-.067.092-.195.13-.318.1l-.815-.227-1.22 1.667.497.655a.26.26 0 0 1 .008.324l-.681.93c-.09.122-.207.117-.296-.009l-3.349-4.89a.295.295 0 0 1-.004-.336l.508-.694c.067-.092.201-.135.326-.104l5.92 1.385Zm-3.715 1.704.726-.993-1.878-.528 1.152 1.521Z"/></symbol><symbol xmlns="http://www.w3.org/2000/svg" id="logo-text-right" fill="none" viewBox="0 0 152 32"><path fill="currentColor" d="M35.669 16.819H4.286c-.658 0-1.195.557-1.134 1.215C3.84 25.85 11.11 32 19.977 32s16.137-6.148 16.826-13.966c.057-.658-.477-1.215-1.134-1.215Z"/><path fill="currentColor" fill-rule="evenodd" d="M.225 3.331C1.79 1.28 4.606 0 7.711 0c3.104 0 5.922 1.279 7.486 3.331a1.1 1.1 0 0 1-.211 1.544 1.106 1.106 0 0 1-1.548-.21c-1.072-1.408-3.181-2.461-5.727-2.461-2.546 0-4.655 1.053-5.727 2.46a1.106 1.106 0 0 1-1.548.211 1.1 1.1 0 0 1-.21-1.544Zm24.542 0C26.331 1.28 29.15 0 32.253 0c3.102 0 5.92 1.279 7.485 3.33a1.1 1.1 0 0 1-.21 1.545 1.106 1.106 0 0 1-1.547-.21c-1.075-1.408-3.185-2.461-5.728-2.461-2.546 0-4.655 1.053-5.727 2.46a1.106 1.106 0 0 1-1.548.211 1.1 1.1 0 0 1-.21-1.544Z" clip-rule="evenodd"/><path fill="currentColor" d="M57.953 18.218a2.79 2.79 0 0 1-.728.37c-.278.098-.53.144-.761.144-.748 0-1.39-.257-1.913-.764a2.527 2.527 0 0 1-.78-1.875c0-.744.257-1.37.78-1.883.523-.52 1.165-.777 1.913-.777.232 0 .49.053.774.152.285.099.53.23.748.395.185.131.397.112.496-.027l1.006-1.467c.086-.125.047-.323-.112-.435a5.017 5.017 0 0 0-1.41-.69c-.55-.185-1.052-.277-1.502-.277a5.13 5.13 0 0 0-1.999.395 4.973 4.973 0 0 0-1.621 1.06c-.45.44-.808.973-1.072 1.592a4.925 4.925 0 0 0-.398 1.962c0 .69.133 1.342.398 1.961a4.904 4.904 0 0 0 1.072 1.593c.456.44.992.796 1.621 1.06a5.247 5.247 0 0 0 1.999.388c.463 0 .966-.086 1.509-.263.55-.178 1-.402 1.357-.672.165-.112.238-.31.158-.434l-.986-1.488c-.106-.151-.344-.158-.549-.02Zm2.773 2.324c0 .217.132.342.35.342h6.354c.219 0 .358-.131.358-.342V19.12c0-.27-.186-.447-.483-.447h-4.203v-1.64h3.19c.238 0 .384-.13.384-.348v-1.25c0-.231-.146-.363-.384-.363h-3.19V13.48h4.203c.231 0 .35-.119.35-.35v-1.513c0-.217-.132-.349-.35-.349h-6.228c-.219 0-.351.132-.351.349v8.925Zm14.448-4.752c.549-.362.893-1.04.893-1.744 0-.876-.285-1.56-.847-2.047-.563-.488-1.35-.731-2.37-.731h-3.474c-.172 0-.258.085-.258.25v9.116c0 .165.086.25.258.25h3.752c1.066 0 1.893-.256 2.482-.763.596-.507.894-1.218.894-2.133 0-.48-.12-.921-.358-1.323a2.117 2.117 0 0 0-.972-.875Zm-2.35-2.383c.523 0 .847.31.847.81s-.324.816-.847.816H71.52v-1.626h1.304Zm-1.304 5.338v-1.928h1.575c.616 0 1.006.362 1.006.947 0 .6-.39.981-1.006.981H71.52Zm6.175 1.797c0 .217.132.342.35.342H84.4c.219 0 .358-.131.358-.342V19.12c0-.27-.186-.447-.484-.447h-4.202v-1.64h3.19c.238 0 .384-.13.384-.348v-1.25c0-.231-.146-.363-.384-.363h-3.19V13.48h4.203c.231 0 .35-.119.35-.35v-1.513c0-.217-.132-.349-.35-.349h-6.228c-.219 0-.351.132-.351.349v8.925Zm10.45-9.274h-1.714c-.205 0-.344.151-.344.355v8.919c0 .217.126.349.344.349h1.694c.232 0 .364-.132.364-.349v-2.62h1.158c1.033 0 1.867-.302 2.509-.901.642-.606.966-1.409.966-2.41 0-1.013-.324-1.823-.966-2.428-.642-.612-1.476-.915-2.509-.915h-1.502Zm.344 4.489v-2.324h1.06c.337 0 .621.112.84.336.225.217.337.494.337.83 0 .335-.112.612-.337.829a1.15 1.15 0 0 1-.84.329h-1.06Zm11.9-4.489H97.43c-1.032 0-1.872.303-2.514.915-.642.605-.96 1.415-.96 2.422 0 1.204.55 2.198 1.496 2.758l-1.695 3.126c-.106.191.014.402.225.402h1.98c.191 0 .277-.066.403-.296l1.416-2.712h.986v2.659c0 .217.133.349.364.349h1.695c.218 0 .344-.132.344-.349v-8.925c0-.204-.139-.349-.344-.349h-.437Zm-2.86 4.555c-.337 0-.621-.119-.846-.356a1.265 1.265 0 0 1-.331-.875c0-.342.112-.619.33-.836.22-.217.504-.33.848-.33h1.237v2.397H97.53Zm11.51-4.555c-.166 0-.252.085-.252.257v3.324h-3.62v-3.324c0-.171-.086-.257-.251-.257h-1.867c-.172 0-.258.085-.258.257v9.11c0 .17.086.256.258.256h1.867c.165 0 .251-.086.251-.257v-3.62h3.62v3.62c0 .171.086.257.252.257h1.873c.165 0 .251-.086.251-.257v-9.11c0-.17-.086-.256-.251-.256h-1.873Zm3.302 4.832c0 .684.133 1.335.391 1.954a5.048 5.048 0 0 0 1.065 1.586 5.112 5.112 0 0 0 3.581 1.448 5.01 5.01 0 0 0 2.541-.658 4.84 4.84 0 0 0 1.82-1.81 4.933 4.933 0 0 0 .669-2.52 4.92 4.92 0 0 0-.398-1.962 4.746 4.746 0 0 0-1.065-1.6 4.9 4.9 0 0 0-1.602-1.053 4.94 4.94 0 0 0-1.965-.395c-.695 0-1.35.132-1.972.395a4.997 4.997 0 0 0-1.609 1.053c-.443.441-.8.974-1.065 1.6a5.04 5.04 0 0 0-.391 1.961Zm2.396 0c0-.738.258-1.357.768-1.864a2.563 2.563 0 0 1 1.873-.763 2.55 2.55 0 0 1 1.866.763c.51.507.768 1.126.768 1.863 0 .73-.258 1.343-.768 1.85-.51.506-1.132.757-1.866.757-.741 0-1.37-.25-1.88-.757a2.503 2.503 0 0 1-.761-1.85Zm14.567-4.839c-.186 0-.338.165-.338.356v2.712c0 .493-.159.888-.47 1.184-.311.296-.721.448-1.244.448-1.039 0-1.654-.612-1.654-1.646v-2.698c0-.204-.159-.356-.371-.356h-1.701c-.179 0-.324.165-.324.356v2.705c0 1.198.357 2.159 1.072 2.883.715.717 1.641 1.08 2.78 1.08.741 0 1.436-.297 1.912-.751v3.008c0 .19.146.342.338.342h1.714a.346.346 0 0 0 .344-.349v-8.918c0-.204-.139-.356-.324-.356h-1.734Zm9.411 4.542 3.077-4.08c.159-.212.093-.435-.152-.435h-2.177c-.232 0-.358.026-.51.23l-2.508 3.35h-1.066v-3.343c0-.165-.086-.25-.251-.25h-1.886c-.173 0-.259.085-.259.25v9.103c0 .17.086.256.259.256h1.886c.165 0 .251-.085.251-.256v-3.509h1.364l2.435 3.634a.442.442 0 0 0 .344.151h2.197c.232 0 .292-.23.159-.421l-3.163-4.68Zm9.477-4.219a.487.487 0 0 0-.437-.323h-1.396a.498.498 0 0 0-.45.323l-3.534 8.919c-.086.23.013.388.258.388h1.873a.442.442 0 0 0 .43-.316l.43-1.257h3.356l.436 1.263c.073.185.239.316.424.316h1.879c.259 0 .345-.17.259-.388l-3.528-8.925Zm-1.151 2.83.999 2.916h-1.999l1-2.916Z"/></symbol></svg>