<svg width="0" height="0"><symbol xmlns="http://www.w3.org/2000/svg" id="burger" fill="none" viewBox="0 0 24 24"><g id="feather-icon / menu" fill="#fff" fill-rule="evenodd" clip-rule="evenodd"><path id="Shape (Stroke)" d="M2.5 12a.5.5 0 0 1 .5-.5h18a.5.5 0 0 1 0 1H3a.5.5 0 0 1-.5-.5Z"/><path id="Shape (Stroke)_2" d="M2.5 6a.5.5 0 0 1 .5-.5h18a.5.5 0 0 1 0 1H3a.5.5 0 0 1-.5-.5Z"/><path id="Shape (Stroke)_3" d="M2.5 18a.5.5 0 0 1 .5-.5h18a.5.5 0 0 1 0 1H3a.5.5 0 0 1-.5-.5Z"/></g></symbol><symbol xmlns="http://www.w3.org/2000/svg" id="logo-no-text" fill="none" viewBox="0 0 127 103"><path fill="#F63" d="M113.091 54.48H13.773c-2.083 0-3.776 1.766-3.595 3.84 2.177 24.693 25.188 44.124 53.25 44.124 28.064 0 51.074-19.431 53.251-44.124.188-2.074-1.505-3.84-3.588-3.84Z"/><path fill="#414141" d="M45.504 17.532a3.659 3.659 0 0 1-2.93-1.45C38.946 11.316 32.054 8.35 24.59 8.35c-7.464 0-14.357 2.96-17.985 7.732a3.677 3.677 0 0 1-5.153.698 3.67 3.67 0 0 1-.699-5.148C5.818 4.973 14.726 1 24.59 1s18.772 3.973 23.844 10.632a3.674 3.674 0 0 1-2.93 5.9Zm77.678 0a3.66 3.66 0 0 1-2.929-1.45c-3.628-4.766-10.521-7.732-17.985-7.732-7.464 0-14.357 2.96-17.985 7.732a3.677 3.677 0 0 1-5.153.698 3.67 3.67 0 0 1-.7-5.148C83.498 4.973 92.406 1 102.269 1c9.863 0 18.771 3.973 23.844 10.632a3.675 3.675 0 0 1-2.93 5.9Z"/></symbol><symbol xmlns="http://www.w3.org/2000/svg" id="logo-text-down" fill="none" viewBox="0 0 65 44"><path fill="#F63" d="M45.492 14.262H17.975c-.577 0-1.046.47-.996 1.024.603 6.584 6.978 11.766 14.753 11.766s14.15-5.182 14.754-11.766c.052-.553-.417-1.024-.994-1.024Z"/><path fill="#414141" d="M26.765 4.408c-.307 0-.612-.132-.811-.386C24.949 2.75 23.039 1.96 20.97 1.96c-2.068 0-3.978.79-4.983 2.062-.34.431-.98.513-1.428.186a.954.954 0 0 1-.193-1.373C15.77 1.06 18.238 0 20.97 0s5.2 1.06 6.606 2.835a.956.956 0 0 1-.194 1.373 1.04 1.04 0 0 1-.617.2Zm21.523 0c-.307 0-.613-.132-.812-.386-1.005-1.271-2.915-2.062-4.983-2.062-2.068 0-3.977.79-4.983 2.062-.34.431-.98.513-1.427.186a.954.954 0 0 1-.194-1.373C37.293 1.06 39.761 0 42.493 0c2.733 0 5.201 1.06 6.606 2.835a.956.956 0 0 1-.193 1.373 1.04 1.04 0 0 1-.618.2ZM3.352 30.003l-.4 1.019c-.036.084-.164.118-.283.077a2.865 2.865 0 0 1-.847-.428 3.028 3.028 0 0 1-.694-.648 3.133 3.133 0 0 1-.54-1.122 3.049 3.049 0 0 1-.054-1.178c.061-.38.203-.746.422-1.097.222-.351.507-.65.864-.897a3.22 3.22 0 0 1 1.156-.507 3.218 3.218 0 0 1 1.217-.04c.4.064.78.202 1.145.418.369.215.683.498.942.843.166.222.305.503.413.838.112.335.168.648.166.941.002.118-.086.208-.183.211l-1.128.03c-.108 0-.197-.096-.197-.234a1.593 1.593 0 0 0-.072-.51 1.42 1.42 0 0 0-.209-.435 1.656 1.656 0 0 0-1.107-.664 1.669 1.669 0 0 0-1.259.288c-.38.264-.607.614-.677 1.056-.067.439.037.847.314 1.216.086.114.203.222.356.322.154.102.305.179.46.227.15.047.234.167.195.274Zm4.503-1.167c.093-.098.212-.102.312-.012l2.897 2.56c.102.089.106.203.013.3l-.652.68c-.098.104-.205.107-.313.013l-1.954-1.728-.685.716 1.484 1.312c.111.099.122.217.022.32l-.538.563c-.093.098-.218.096-.328 0L6.63 32.248l-.704.737 1.955 1.727c.137.122.149.28.031.4l-.61.638c-.091.095-.212.097-.313.008l-2.956-2.61c-.102-.09-.11-.2-.016-.299l3.838-4.013Zm6.265 8.421a1.514 1.514 0 0 1-.253.8c-.307.475-.705.747-1.195.818-.486.074-1.016-.059-1.588-.402l-2.012-1.207c-.093-.055-.11-.127-.054-.213l3.064-4.725c.056-.086.13-.102.222-.046l1.863 1.117c.545.327.886.706 1.024 1.14.137.433.06.878-.235 1.333-.236.365-.65.605-1.065.618.16.229.237.483.23.767Zm-2.334.099c.33.198.668.125.87-.184.197-.305.11-.618-.222-.815l-.845-.506-.648.998.845.507Zm.951-3.274-.547.843.698.42c.281.167.56.108.728-.151.167-.26.098-.525-.183-.693l-.696-.419Zm4.228 1.105c.052-.124.16-.169.288-.118l3.65 1.408c.129.05.175.154.123.278l-.357.857c-.054.13-.153.17-.289.118l-2.464-.95-.376.902 1.87.721c.14.054.194.161.14.292l-.296.709c-.052.123-.167.164-.307.11l-1.87-.72-.388.928 2.465.95c.175.069.242.21.177.364l-.337.805c-.05.12-.162.163-.29.113l-3.725-1.437c-.129-.05-.177-.15-.125-.274l2.11-5.056Zm7.512 2.158c.637.134 1.111.424 1.424.873.313.446.404.97.265 1.575-.136.598-.447 1.035-.926 1.312-.478.274-1.033.346-1.671.212l-.715-.15-.357 1.562c-.03.129-.129.191-.272.16l-1.046-.22c-.134-.028-.194-.123-.166-.252l1.216-5.32a.212.212 0 0 1 .26-.167l.527.11.53.113.931.192Zm-.674 2.665a.752.752 0 0 0 .564-.086c.17-.1.276-.25.322-.45a.65.65 0 0 0-.095-.54.705.705 0 0 0-.472-.31l-.654-.137-.316 1.387.651.136Zm7.975-1.879c.13.007.212.1.205.224L31.67 43.8c-.008.132-.091.209-.23.2l-1.068-.057c-.147-.007-.225-.093-.217-.226l.093-1.621-.622-.032-.988 1.607c-.088.136-.144.173-.265.166l-1.249-.066c-.134-.007-.2-.14-.128-.252l1.178-1.851c-.577-.372-.89-.997-.847-1.733.035-.614.264-1.097.69-1.446.427-.352.969-.508 1.62-.474l1.867.098.274.018ZM30.32 40.84l.084-1.462-.78-.041a.747.747 0 0 0-.545.172.684.684 0 0 0-.239.499.751.751 0 0 0 .18.544.715.715 0 0 0 .52.245l.78.043Zm8.065-3.287c.105-.013.164.034.177.138l.689 5.527c.013.103-.035.16-.138.173l-1.174.136c-.105.013-.164-.034-.177-.138l-.274-2.196-2.27.262.273 2.196c.013.104-.035.16-.138.173l-1.17.135c-.109.012-.168-.034-.181-.138l-.689-5.527c-.013-.104.035-.161.143-.174l1.171-.134c.104-.013.164.034.177.138l.251 2.017 2.271-.261-.251-2.018c-.013-.103.035-.16.138-.173l1.172-.136Zm1.913 1.424a2.93 2.93 0 0 1 .32-1.13c.183-.343.434-.65.756-.919.32-.272.687-.472 1.104-.605a3.24 3.24 0 0 1 1.258-.145c.425.03.817.134 1.17.306.358.17.68.412.96.725.282.308.49.66.629 1.061a2.92 2.92 0 0 1 .102 1.59 2.9 2.9 0 0 1-.732 1.398 3.162 3.162 0 0 1-1.394.866 3.333 3.333 0 0 1-2.436-.157 3.179 3.179 0 0 1-.955-.718 3.058 3.058 0 0 1-.624-1.06c-.14-.4-.19-.803-.158-1.212Zm2.42 1.683a1.67 1.67 0 0 0 1.279.08 1.6 1.6 0 0 0 .97-.794c.204-.392.238-.795.09-1.22a1.564 1.564 0 0 0-.831-.933 1.665 1.665 0 0 0-1.272-.088c-.44.14-.767.408-.971.8-.205.392-.237.8-.09 1.226.145.426.42.732.825.929Zm7.729-7.886c.1-.056.225-.018.29.09l2.83 4.718c.061.1.028.23-.078.288l-.938.519a.218.218 0 0 1-.294-.079l-.955-1.591a1.72 1.72 0 0 1-.808.977c-.624.346-1.245.435-1.863.272-.62-.166-1.121-.565-1.5-1.199l-.859-1.432c-.061-.1-.033-.233.065-.286l.931-.516c.115-.064.251-.032.315.075l.856 1.429c.327.546.858.683 1.428.368.286-.159.461-.363.538-.613.076-.251.037-.509-.12-.77l-.86-1.436a.207.207 0 0 1 .073-.29l.95-.524Zm9.284-.174c.144.034.212.163.105.256l-1.035.89a.286.286 0 0 1-.227.07l-2.686-.67-.643.551 1.486 1.599c.072.078.069.152-.01.218l-.887.764c-.082.07-.159.067-.231-.012l-3.853-4.147c-.07-.075-.066-.149.015-.219l.888-.764c.078-.066.154-.063.225.013l1.414 1.523.503-.432-.236-2.541c-.015-.154.033-.217.143-.312l1.026-.88c.115-.099.241-.024.255.136l.277 3.105 3.471.852Zm4.614-5.928c.144.034.201.136.108.265l-.683.934c-.067.092-.195.13-.318.1l-.815-.227-1.22 1.667.497.655a.26.26 0 0 1 .008.324l-.681.93c-.09.122-.207.117-.296-.009l-3.349-4.89a.295.295 0 0 1-.004-.336l.508-.694c.067-.092.201-.135.326-.104l5.92 1.385Zm-3.715 1.704.726-.993-1.878-.528 1.152 1.521Z"/></symbol><symbol xmlns="http://www.w3.org/2000/svg" id="logo-text-right" fill="none" viewBox="0 0 413 87"><path fill="#F63" d="M96.915 45.727h-85.27c-1.787 0-3.245 1.515-3.082 3.304 1.873 21.246 21.626 37.97 45.717 37.97 24.09 0 43.844-16.716 45.716-37.97.157-1.789-1.294-3.304-3.081-3.304Z"/><path fill="#414141" fill-rule="evenodd" d="M.612 9.057C4.86 3.476 12.516 0 20.952 0c8.435 0 16.091 3.476 20.34 9.057a2.992 2.992 0 0 1-.574 4.198 3.004 3.004 0 0 1-4.205-.573c-2.913-3.827-8.644-6.69-15.561-6.69-6.918 0-12.649 2.863-15.562 6.69a3.004 3.004 0 0 1-4.205.573 2.992 2.992 0 0 1-.573-4.198Zm66.683 0C71.544 3.476 79.2 0 87.635 0c8.43 0 16.083 3.477 20.338 9.055a2.993 2.993 0 0 1-.569 4.198 3.004 3.004 0 0 1-4.205-.568c-2.922-3.83-8.656-6.694-15.564-6.694-6.917 0-12.648 2.864-15.561 6.691a3.004 3.004 0 0 1-4.205.573 2.992 2.992 0 0 1-.574-4.198Z" clip-rule="evenodd"/><path fill="#414141" d="M157.464 49.532c-.557.411-1.223.733-1.978 1.002-.755.268-1.438.394-2.068.394-2.032 0-3.776-.698-5.197-2.076-1.42-1.396-2.122-3.096-2.122-5.1 0-2.022.702-3.722 2.122-5.118 1.421-1.414 3.165-2.112 5.197-2.112.63 0 1.331.143 2.104.412a7.306 7.306 0 0 1 2.032 1.074c.504.357 1.079.304 1.349-.072l2.733-3.99c.234-.34.126-.877-.306-1.182-1.06-.77-2.337-1.396-3.83-1.879-1.492-.5-2.859-.751-4.082-.751-1.906 0-3.722.358-5.43 1.073a13.506 13.506 0 0 0-4.406 2.882c-1.223 1.199-2.194 2.648-2.913 4.33a13.389 13.389 0 0 0-1.079 5.333c0 1.879.359 3.65 1.079 5.332.719 1.682 1.69 3.132 2.913 4.33a14.105 14.105 0 0 0 4.406 2.882 14.245 14.245 0 0 0 5.43 1.056c1.259 0 2.626-.233 4.1-.716 1.493-.483 2.716-1.092 3.687-1.825.449-.305.647-.841.431-1.181l-2.679-4.045c-.288-.411-.935-.43-1.493-.053Zm7.535 6.317c0 .59.36.93.953.93h17.263c.593 0 .971-.358.971-.93v-3.866c0-.733-.503-1.217-1.313-1.217h-11.418v-4.455h8.667c.647 0 1.043-.358 1.043-.949v-3.4c0-.626-.396-.984-1.043-.984h-8.667v-4.33h11.418c.63 0 .953-.323.953-.949v-4.116c0-.59-.359-.948-.953-.948h-16.921c-.593 0-.953.358-.953.948V55.85Zm39.255-12.921c1.493-.984 2.428-2.827 2.428-4.742 0-2.38-.773-4.24-2.302-5.565-1.528-1.324-3.668-1.986-6.437-1.986h-9.441c-.468 0-.702.232-.702.68v24.784c0 .447.234.68.702.68h10.196c2.895 0 5.143-.698 6.743-2.076 1.619-1.378 2.428-3.31 2.428-5.798a6.925 6.925 0 0 0-.971-3.596c-.648-1.092-1.529-1.88-2.644-2.38Zm-6.383-6.477c1.42 0 2.301.84 2.301 2.2 0 1.36-.881 2.22-2.301 2.22h-3.543v-4.42h3.543Zm-3.543 14.512V45.72h4.28c1.672 0 2.733.984 2.733 2.577 0 1.628-1.061 2.666-2.733 2.666h-4.28Zm16.778 4.886c0 .59.359.93.953.93h17.263c.593 0 .971-.358.971-.93v-3.866c0-.733-.504-1.217-1.313-1.217h-11.419v-4.455h8.668c.647 0 1.043-.358 1.043-.949v-3.4c0-.626-.396-.984-1.043-.984h-8.668v-4.33h11.419c.629 0 .953-.323.953-.949v-4.116c0-.59-.36-.948-.953-.948h-16.921c-.594 0-.953.358-.953.948V55.85ZM239.5 30.635h-4.658c-.557 0-.935.411-.935.966V55.85c0 .59.342.948.935.948h4.604c.629 0 .989-.358.989-.948v-7.123h3.147c2.805 0 5.071-.823 6.815-2.451 1.744-1.646 2.625-3.83 2.625-6.55 0-2.755-.881-4.956-2.625-6.603-1.744-1.664-4.01-2.487-6.815-2.487H239.5Zm.935 12.204v-6.317h2.877c.917 0 1.69.304 2.284.913.611.59.917 1.342.917 2.255 0 .912-.306 1.664-.917 2.254-.594.59-1.367.895-2.284.895h-2.877Zm32.332-12.204h-8.038c-2.805 0-5.089.823-6.833 2.487-1.745 1.647-2.608 3.848-2.608 6.586 0 3.274 1.493 5.976 4.064 7.497l-4.603 8.5c-.288.52.036 1.092.611 1.092h5.377c.521 0 .755-.179 1.097-.805l3.848-7.373h2.679v7.23c0 .59.36.948.989.948h4.604c.593 0 .935-.358.935-.948V31.583c0-.554-.378-.948-.935-.948h-1.187Zm-7.768 12.383c-.917 0-1.691-.322-2.302-.966-.594-.662-.899-1.45-.899-2.38 0-.93.305-1.682.899-2.273.593-.59 1.367-.895 2.302-.895h3.362v6.514h-3.362Zm31.271-12.383c-.45 0-.683.232-.683.698v9.037h-9.837v-9.037c0-.465-.234-.698-.683-.698h-5.071c-.468 0-.701.232-.701.698v24.766c0 .465.233.698.701.698h5.071c.449 0 .683-.233.683-.698v-9.842h9.837v9.842c0 .465.233.698.683.698h5.089c.449 0 .683-.233.683-.698V31.333c0-.465-.234-.698-.683-.698h-5.089Zm8.973 13.135c0 1.86.36 3.632 1.061 5.314.719 1.664 1.69 3.114 2.895 4.313 1.223 1.199 2.68 2.165 4.37 2.881a13.889 13.889 0 0 0 5.359 1.056c2.517 0 4.819-.59 6.905-1.79 2.104-1.199 3.74-2.845 4.945-4.92 1.205-2.077 1.816-4.367 1.816-6.854 0-1.88-.359-3.651-1.079-5.333-.701-1.7-1.672-3.15-2.895-4.348-1.205-1.2-2.661-2.166-4.352-2.864-1.672-.715-3.452-1.073-5.34-1.073a13.58 13.58 0 0 0-5.359 1.073 13.602 13.602 0 0 0-4.37 2.864c-1.205 1.199-2.176 2.648-2.895 4.348a13.71 13.71 0 0 0-1.061 5.333Zm6.51 0c0-2.005.701-3.687 2.086-5.065 1.384-1.377 3.093-2.075 5.089-2.075 1.996 0 3.686.697 5.071 2.075 1.384 1.378 2.086 3.06 2.086 5.065 0 1.986-.702 3.65-2.086 5.028-1.385 1.378-3.075 2.058-5.071 2.058-2.014 0-3.723-.68-5.107-2.058-1.385-1.378-2.068-3.042-2.068-5.028Zm39.579-13.153c-.504 0-.917.447-.917.966v7.373c0 1.342-.432 2.416-1.277 3.22-.845.806-1.96 1.218-3.381 1.218-2.823 0-4.495-1.664-4.495-4.474v-7.337c0-.554-.432-.966-1.007-.966h-4.622c-.485 0-.881.447-.881.966v7.355c0 3.257.971 5.87 2.913 7.838 1.942 1.95 4.46 2.935 7.553 2.935 2.014 0 3.902-.806 5.197-2.04v8.178c0 .519.395.93.917.93h4.657c.522 0 .935-.43.935-.948V31.583c0-.554-.377-.966-.881-.966h-4.711Zm25.571 12.347 8.362-11.094c.431-.573.251-1.181-.414-1.181h-5.916c-.63 0-.971.071-1.385.626l-6.815 9.108h-2.895v-9.09c0-.448-.234-.68-.684-.68h-5.125c-.467 0-.701.232-.701.68V56.08c0 .465.234.698.701.698h5.125c.45 0 .684-.233.684-.698v-9.538h3.704l6.617 9.878c.234.269.558.412.936.412h5.97c.629 0 .791-.627.431-1.145l-8.595-12.724Zm25.75-11.47c-.197-.52-.683-.877-1.186-.877h-3.795c-.503 0-.989.322-1.222.877l-9.603 24.247c-.234.627.036 1.056.701 1.056h5.089c.558 0 1.025-.358 1.169-.859l1.169-3.418h9.117l1.187 3.436c.198.5.647.859 1.151.859h5.107c.701 0 .935-.465.701-1.056l-9.585-24.265Zm-3.128 7.694 2.715 7.928h-5.431l2.716-7.928Z"/></symbol></svg>