<svg width="24" height="24" viewBox="0 0 24 24" fill="none" xmlns="http://www.w3.org/2000/svg">
<path d="M2.77734 18.4714C2.77734 13.86 0.388672 10.6934 0.388672 8.47136C0.388672 6.24936 1.66601 1.58203 11.888 1.58203C22.11 1.58203 23.61 7.86003 23.61 10.304C23.6107 21.7487 2.77734 26.638 2.77734 18.4714Z" fill="#FCD5BA"/>
<path d="M10.4739 16.7473C10.3485 16.8727 10.1792 16.9427 10.0025 16.9427C9.82585 16.9427 9.65585 16.8727 9.53119 16.7473L5.53119 12.7473C5.27052 12.4867 5.27119 12.0647 5.53119 11.8047L6.47385 10.862C6.73452 10.6013 7.15652 10.6013 7.41652 10.862L10.0025 13.4473L16.5885 6.862C16.8492 6.60134 17.2712 6.60134 17.5312 6.862L18.4739 7.80467C18.7345 8.06534 18.7345 8.48734 18.4739 8.74734L10.4739 16.7473Z" fill="#FF6633"/>
<path d="M7.02948 12.7473C6.76882 12.4867 6.76948 12.0647 7.02948 11.8047L7.69348 11.1407L7.41482 10.862C7.15415 10.6013 6.73215 10.6013 6.47215 10.862L5.52948 11.8047C5.26882 12.0653 5.26882 12.4873 5.52948 12.7473L9.52949 16.7473C9.65482 16.8727 9.82415 16.9427 10.0008 16.9427C10.1775 16.9427 10.3475 16.8727 10.4722 16.7473L10.7508 16.4687L7.02948 12.7473Z" fill="black" fill-opacity="0.1"/>
</svg>
