<svg width="65" height="44" viewBox="0 0 65 44" fill="none" xmlns="http://www.w3.org/2000/svg">
<path d="M45.4918 14.2617H17.9749C17.3979 14.2617 16.9288 14.7325 16.9791 15.2855C17.5821 21.8704 23.9574 27.052 31.7324 27.052C39.5074 27.052 45.8827 21.8704 46.4857 15.2855C46.5379 14.7325 46.0688 14.2617 45.4918 14.2617Z" fill="#FF6633"/>
<path d="M26.7655 4.40841C26.4584 4.40841 26.1531 4.27596 25.9539 4.0218C24.9488 2.75101 23.039 1.95989 20.971 1.95989C18.903 1.95989 16.9932 2.74922 15.9881 4.0218C15.6474 4.45316 15.0071 4.53549 14.5604 4.20795C14.1118 3.88041 14.0262 3.2647 14.3668 2.83513C15.7703 1.05959 18.2385 0 20.971 0C23.7035 0 26.1717 1.05959 27.5771 2.83513C27.9177 3.26648 27.8302 3.88041 27.3835 4.20795C27.1973 4.34398 26.9814 4.40841 26.7655 4.40841Z" fill="#414141"/>
<path d="M48.2878 4.40841C47.9807 4.40841 47.6754 4.27596 47.4762 4.0218C46.4711 2.75101 44.5613 1.95989 42.4933 1.95989C40.4253 1.95989 38.5155 2.74922 37.5104 4.0218C37.1697 4.45316 36.5294 4.53549 36.0827 4.20795C35.6341 3.88041 35.5485 3.2647 35.8891 2.83513C37.2926 1.05959 39.7608 0 42.4933 0C45.2258 0 47.694 1.05959 49.0994 2.83513C49.44 3.26648 49.3525 3.88041 48.9058 4.20795C48.7196 4.34398 48.5037 4.40841 48.2878 4.40841Z" fill="#414141"/>
<path d="M3.35197 30.0031L2.95178 31.0216C2.91641 31.1057 2.78797 31.1397 2.66885 31.0985C2.39708 31.0198 2.11601 30.8784 1.82192 30.6707C1.52968 30.4667 1.29887 30.2501 1.12762 30.0228C0.868886 29.6774 0.688332 29.3015 0.587817 28.9006C0.491025 28.4961 0.476134 28.1059 0.533837 27.7229C0.595263 27.3434 0.736728 26.9765 0.956371 26.6257C1.17788 26.2749 1.46267 25.976 1.82005 25.729C2.17558 25.482 2.56089 25.3137 2.97597 25.2224C3.39106 25.1311 3.79871 25.1168 4.19332 25.1813C4.59352 25.2457 4.97324 25.3835 5.33807 25.6001C5.70663 25.8149 6.0212 26.0977 6.27993 26.4431C6.4456 26.6651 6.5852 26.9461 6.69316 27.2808C6.80484 27.6155 6.86068 27.9287 6.85882 28.2222C6.86068 28.3404 6.7732 28.4298 6.67641 28.4334L5.54841 28.4639C5.44045 28.4639 5.3511 28.3672 5.3511 28.2294C5.35482 28.0629 5.33249 27.8947 5.27851 27.7193C5.22453 27.5439 5.15566 27.3989 5.07003 27.2843C4.79269 26.9156 4.42413 26.6919 3.96251 26.6203C3.50461 26.5469 3.08766 26.6436 2.70421 26.9085C2.32449 27.1716 2.0974 27.5224 2.02667 27.9645C1.95966 28.403 2.0639 28.8111 2.34124 29.1798C2.42687 29.2943 2.54413 29.4017 2.69677 29.502C2.85126 29.604 3.00203 29.681 3.15653 29.7293C3.3073 29.7758 3.39106 29.8957 3.35197 30.0031Z" fill="#414141"/>
<path d="M7.85468 28.8361C7.94775 28.7377 8.06688 28.7341 8.1674 28.8236L11.0637 31.3831C11.1661 31.4726 11.1698 31.5872 11.0767 31.6838L10.4253 32.364C10.3266 32.4678 10.2205 32.4713 10.1125 32.3765L8.15809 30.6493L7.4731 31.3652L8.95662 32.6772C9.06831 32.7756 9.07947 32.8938 8.97896 32.9976L8.44102 33.5596C8.34795 33.658 8.22324 33.6562 8.11342 33.5596L6.62989 32.2476L5.92629 32.985L7.88074 34.7122C8.01849 34.834 8.02965 34.9915 7.91239 35.1114L7.30185 35.7504C7.21064 35.8452 7.08965 35.847 6.98914 35.7575L4.03326 33.1479C3.93088 33.0584 3.92344 32.9474 4.01651 32.849L7.85468 28.8361Z" fill="#414141"/>
<path d="M14.1203 37.2574C14.1128 37.542 14.0291 37.8087 13.8671 38.0575C13.56 38.5318 13.1617 38.8038 12.6721 38.8754C12.1863 38.9488 11.6558 38.8164 11.0844 38.4727L9.07221 37.2664C8.97914 37.2109 8.96239 37.1393 9.01823 37.0534L12.0821 32.3282C12.1379 32.2422 12.2124 32.2261 12.3036 32.2816L14.1668 33.3985C14.7122 33.726 15.0528 34.1055 15.1906 34.5386C15.3283 34.9718 15.2501 35.4174 14.956 35.8721C14.7197 36.2372 14.3064 36.477 13.8913 36.4896C14.0514 36.7187 14.1277 36.9728 14.1203 37.2574ZM11.7861 37.3559C12.1156 37.5545 12.4543 37.4811 12.6554 37.1715C12.8527 36.8672 12.7652 36.554 12.4339 36.3571L11.5888 35.8506L10.941 36.8493L11.7861 37.3559ZM12.7373 34.0822L12.19 34.9252L12.888 35.3441C13.1691 35.5123 13.4483 35.4532 13.6158 35.1937C13.7834 34.9342 13.7145 34.6693 13.4334 34.501L12.7373 34.0822Z" fill="#414141"/>
<path d="M16.9648 35.1866C17.0169 35.0631 17.1249 35.0184 17.2533 35.0685L20.9035 36.4771C21.0319 36.5272 21.0784 36.6311 21.0263 36.7546L20.6689 37.6119C20.615 37.7425 20.5163 37.7819 20.3804 37.73L17.9159 36.7796L17.5399 37.6817L19.4106 38.403C19.5502 38.4567 19.6042 38.5641 19.5502 38.6948L19.2543 39.4035C19.2022 39.527 19.0868 39.5682 18.9472 39.5145L17.0765 38.7932L16.6893 39.7221L19.1538 40.6725C19.3287 40.7406 19.3957 40.882 19.3306 41.0359L18.9937 41.8413C18.9434 41.9612 18.8317 42.0042 18.7033 41.9541L14.9787 40.5168C14.8502 40.4667 14.8018 40.3665 14.854 40.243L16.9648 35.1866Z" fill="#414141"/>
<path d="M24.4773 37.3449C25.1139 37.4792 25.5885 37.7691 25.9012 38.2184C26.214 38.6641 26.3052 39.1885 26.1656 39.7935C26.0297 40.3913 25.7188 40.828 25.2404 41.1054C24.7621 41.3793 24.2074 41.4509 23.5689 41.3166L22.8541 41.1663L22.4968 42.7288C22.467 42.8577 22.3683 42.9203 22.225 42.8899L21.1789 42.6698C21.0449 42.6411 20.9853 42.5463 21.0132 42.4174L22.2287 37.0961C22.2566 36.9744 22.3627 36.9028 22.4893 36.9297L23.0161 37.0407L23.5466 37.1534L24.4773 37.3449ZM23.8035 40.01C24.0119 40.0548 24.2018 40.0244 24.3675 39.9241C24.5368 39.8239 24.6429 39.6735 24.6895 39.4731C24.736 39.2726 24.7044 39.0936 24.5945 38.9343C24.4903 38.7715 24.3302 38.6676 24.1218 38.6247L23.4684 38.4869L23.152 39.874L23.8035 40.01Z" fill="#414141"/>
<path d="M31.7777 38.1312C31.908 38.1383 31.9899 38.2314 31.9825 38.3549L31.6698 43.7996C31.6623 43.9321 31.5786 44.009 31.4408 44.0001L30.3724 43.9428C30.2253 43.9356 30.1472 43.8497 30.1546 43.7173L30.2477 42.0957L29.626 42.0635L28.6376 43.6708C28.5501 43.8068 28.4942 43.8444 28.3733 43.8372L27.1243 43.771C26.9902 43.7638 26.9232 43.6314 26.9958 43.5186L28.1741 41.6679C27.5971 41.2956 27.2843 40.671 27.3272 39.9353C27.3625 39.3214 27.5915 38.8382 28.0177 38.4891C28.444 38.1365 28.9857 37.9808 29.6371 38.0148L31.5041 38.1133L31.7777 38.1312ZM30.3203 40.8392L30.404 39.3769L29.6241 39.3357C29.4063 39.325 29.2239 39.3823 29.0787 39.5076C28.9335 39.6328 28.8535 39.7975 28.8405 40.0069C28.8293 40.2163 28.8889 40.3953 29.0192 40.551C29.1532 40.7032 29.3281 40.7855 29.5403 40.7962L30.3203 40.8392Z" fill="#414141"/>
<path d="M38.3854 37.5528C38.4897 37.5402 38.5492 37.5868 38.5622 37.6906L39.251 43.2177C39.264 43.3215 39.2156 43.3788 39.1132 43.3913L37.9387 43.5273C37.8344 43.5398 37.7749 43.4933 37.7619 43.3895L37.4882 41.1933L35.2173 41.4547L35.491 43.6508C35.504 43.7546 35.4556 43.8119 35.3532 43.8244L34.1824 43.9587C34.0744 43.9712 34.0149 43.9247 34.0019 43.8209L33.3131 38.2938C33.3001 38.19 33.3485 38.1327 33.4565 38.1202L34.6273 37.9859C34.7315 37.9734 34.7911 38.0199 34.8041 38.1237L35.0554 40.1409L37.3263 39.8796L37.075 37.8624C37.062 37.7586 37.1104 37.7013 37.2127 37.6888L38.3854 37.5528Z" fill="#414141"/>
<path d="M40.2981 38.9775C40.3316 38.564 40.4396 38.1864 40.6182 37.8463C40.8007 37.5045 41.0519 37.1966 41.374 36.9281C41.6941 36.6561 42.0608 36.4556 42.4778 36.3232C42.8947 36.1907 43.3135 36.1424 43.7361 36.1782C44.1605 36.2086 44.5532 36.3124 44.9069 36.4842C45.2643 36.6543 45.5863 36.8959 45.8655 37.2091C46.1484 37.517 46.3569 37.8696 46.4946 38.2705C46.6771 38.8021 46.7106 39.3337 46.597 39.8599C46.4835 40.3879 46.2434 40.8533 45.8655 41.2578C45.4932 41.6605 45.0279 41.9469 44.4713 42.1241C44.0544 42.2565 43.6356 42.3048 43.2112 42.2744C42.7849 42.2404 42.3921 42.1366 42.0348 41.9666C41.6811 41.7947 41.3609 41.5549 41.0799 41.2488C40.8025 40.9392 40.5922 40.5866 40.4563 40.1892C40.3167 39.7883 40.2664 39.3856 40.2981 38.9775ZM42.7179 40.66C43.1255 40.8568 43.5518 40.8819 43.9967 40.7405C44.4378 40.6009 44.7598 40.336 44.9664 39.9458C45.1712 39.5538 45.2047 39.1511 45.0577 38.7269C44.9106 38.2991 44.6333 37.9895 44.2256 37.7926C43.818 37.5957 43.3936 37.5653 42.9543 37.7049C42.5131 37.8445 42.1874 38.113 41.9826 38.505C41.7779 38.897 41.7462 39.305 41.8933 39.731C42.0385 40.157 42.3121 40.4631 42.7179 40.66Z" fill="#414141"/>
<path d="M50.4473 32.774C50.5478 32.7185 50.6725 32.7561 50.7377 32.8635L53.567 37.5816C53.6284 37.6818 53.5949 37.8124 53.4888 37.8697L52.5506 38.3888C52.4464 38.4478 52.318 38.4103 52.2565 38.31L51.3017 36.7188C51.1844 37.1037 50.8977 37.4706 50.4938 37.6961C49.8702 38.0415 49.2485 38.131 48.6306 37.9682C48.0107 37.8017 47.51 37.4026 47.1303 36.769L46.2722 35.3371C46.2108 35.2368 46.2387 35.1044 46.3373 35.0507L47.268 34.5352C47.3834 34.4708 47.5193 34.503 47.5826 34.6104L48.4388 36.0387C48.7664 36.5846 49.2969 36.7224 49.8665 36.4074C50.1532 36.2481 50.3281 36.0441 50.4045 35.7935C50.4808 35.5429 50.4417 35.2852 50.2853 35.0238L49.4254 33.5884C49.3639 33.4882 49.3956 33.3539 49.498 33.2984L50.4473 32.774Z" fill="#414141"/>
<path d="M59.7313 32.6002C59.8746 32.6342 59.9435 32.7631 59.8356 32.8562L58.8006 33.7457C58.7355 33.8012 58.6573 33.8263 58.5735 33.8155L55.8876 33.1461L55.2454 33.6974L56.7308 35.2957C56.8034 35.3745 56.7996 35.4479 56.7215 35.5141L55.8336 36.2784C55.7517 36.3482 55.6754 36.3446 55.6028 36.2658L51.7497 32.1187C51.6808 32.0436 51.6845 31.9702 51.7646 31.9004L52.6525 31.1361C52.7306 31.0699 52.807 31.0735 52.8777 31.1486L54.2923 32.6718L54.7949 32.2404L54.5585 29.6989C54.5436 29.5449 54.592 29.4823 54.7019 29.3874L55.7275 28.5068C55.8429 28.4084 55.9695 28.4835 55.9825 28.6428L56.2598 31.7482L59.7313 32.6002Z" fill="#414141"/>
<path d="M64.3454 26.6721C64.4888 26.7062 64.5465 26.8082 64.4534 26.937L63.7703 27.8713C63.7033 27.9626 63.5748 28.0002 63.452 27.9716L62.6367 27.7443L61.4175 29.4106L61.9145 30.0657C61.9908 30.157 61.9964 30.2894 61.9219 30.3897L61.2406 31.3204C61.1513 31.4421 61.034 31.4367 60.9447 31.3114L57.596 26.4216C57.5216 26.307 57.5253 26.1764 57.5923 26.0851L58.1005 25.3906C58.1675 25.2993 58.3015 25.2564 58.4262 25.2868L64.3454 26.6721ZM60.6301 28.3761L61.356 27.3827L59.4779 26.8547L60.6301 28.3761Z" fill="#414141"/>
</svg>
