<svg width="0" height="0"><symbol xmlns="http://www.w3.org/2000/svg" id="alert-circle" fill="none" viewBox="0 0 24 24"><path fill="currentColor" fill-rule="evenodd" d="M1.5 12C1.5 6.201 6.201 1.5 12 1.5S22.5 6.201 22.5 12 17.799 22.5 12 22.5 1.5 17.799 1.5 12ZM12 2.5a9.5 9.5 0 1 0 0 19 9.5 9.5 0 0 0 0-19Z" clip-rule="evenodd"/><path fill="currentColor" fill-rule="evenodd" d="M12 7.5a.5.5 0 0 1 .5.5v4a.5.5 0 0 1-1 0V8a.5.5 0 0 1 .5-.5Z" clip-rule="evenodd"/><path fill="currentColor" d="M13 16a1 1 0 1 1-2 0 1 1 0 0 1 2 0Z"/></symbol><symbol xmlns="http://www.w3.org/2000/svg" id="burger" fill="none" viewBox="0 0 24 24"><g id="feather-icon / menu" fill="currentColor" fill-rule="evenodd" clip-rule="evenodd"><path id="Shape (Stroke)" d="M2.5 12a.5.5 0 0 1 .5-.5h18a.5.5 0 0 1 0 1H3a.5.5 0 0 1-.5-.5Z"/><path id="Shape (Stroke)_2" d="M2.5 6a.5.5 0 0 1 .5-.5h18a.5.5 0 0 1 0 1H3a.5.5 0 0 1-.5-.5Z"/><path id="Shape (Stroke)_3" d="M2.5 18a.5.5 0 0 1 .5-.5h18a.5.5 0 0 1 0 1H3a.5.5 0 0 1-.5-.5Z"/></g></symbol><symbol xmlns="http://www.w3.org/2000/svg" id="chevron" fill="none" viewBox="0 0 32 32"><path fill="currentColor" fill-rule="evenodd" d="M20.47 7.529c.26.26.26.682 0 .943L12.942 16l7.528 7.529a.667.667 0 1 1-.943.943l-8-8a.667.667 0 0 1 0-.943l8-8c.26-.26.683-.26.943 0Z" clip-rule="evenodd"/></symbol><symbol xmlns="http://www.w3.org/2000/svg" id="heart" fill="none" viewBox="0 0 24 24"><path fill="currentColor" fill-rule="evenodd" d="M12.705 4.256a6 6 0 1 1 8.487 8.487l-8.84 8.84a.5.5 0 0 1-.707 0l-8.84-8.84a6.001 6.001 0 1 1 8.487-8.487l.706.707.707-.707Zm4.243-.758a5 5 0 0 0-3.536 1.465l-1.06 1.06a.5.5 0 0 1-.707 0l-1.06-1.06a5.001 5.001 0 1 0-7.073 7.073l8.486 8.487 8.487-8.487a5 5 0 0 0-3.537-8.538Z" clip-rule="evenodd"/></symbol><symbol xmlns="http://www.w3.org/2000/svg" id="message" fill="none" viewBox="0 0 18 18"><path fill="currentColor" fill-rule="evenodd" d="M9.374 2.625a5.91 5.91 0 0 0-2.68.635h-.001a6 6 0 0 0-3.318 5.365v.001a5.91 5.91 0 0 0 .635 2.68c.045.09.052.193.02.288l-1.187 3.563 3.563-1.188a.375.375 0 0 1 .288.021c.83.42 1.75.637 2.68.635a6 6 0 0 0 5.366-3.318v-.001c.42-.83.637-1.75.635-2.68l.375-.001h-.375v-.364A5.985 5.985 0 0 0 9.74 2.625h-.366Zm6.751 5.999a6.66 6.66 0 0 1-.715 3.02 6.75 6.75 0 0 1-6.034 3.731 6.659 6.659 0 0 1-2.878-.646l-4.13 1.377a.375.375 0 0 1-.474-.475l1.377-4.129a6.66 6.66 0 0 1-.646-2.878L3 8.625h-.375A6.75 6.75 0 0 1 6.357 2.59h-.001l.169.335-.168-.335a6.66 6.66 0 0 1 3.018-.715h.395a6.735 6.735 0 0 1 6.355 6.375v.374Zm-6.75 6.751V15l.001.375Z" clip-rule="evenodd"/></symbol><symbol xmlns="http://www.w3.org/2000/svg" id="package" fill="none" viewBox="0 0 24 24"><g id="Frame 211" fill="currentColor" fill-rule="evenodd" clip-rule="evenodd"><path d="m11.332 1.898-7.998 4h-.001A1.5 1.5 0 0 0 2.5 7.24v9.524a1.5 1.5 0 0 0 .824 1.349l8 4a1.5 1.5 0 0 0 1.342 0l8-4h.002a1.5 1.5 0 0 0 .832-1.343V7.24a1.5 1.5 0 0 0-.832-1.342h-.002l-7.998-4a1.502 1.502 0 0 0-1.335 0Zm-.445-.896a2.5 2.5 0 0 1 2.226 0l8 4A2.5 2.5 0 0 1 22.5 7.24v9.53a2.5 2.5 0 0 1-1.387 2.237l-8 4a2.5 2.5 0 0 1-2.237 0l-8-4A2.5 2.5 0 0 1 1.5 16.758V7.24a2.5 2.5 0 0 1 1.387-2.237l8-4Z"/><path d="M1.873 5.936a.5.5 0 0 1 .67-.223L12 10.44l9.456-4.728a.5.5 0 1 1 .448.894l-9.68 4.84a.5.5 0 0 1-.448 0l-9.68-4.84a.5.5 0 0 1-.223-.67Z"/><path d="M12 10.5a.5.5 0 0 1 .5.5v11.76a.5.5 0 0 1-1 0V11a.5.5 0 0 1 .5-.5Z"/><path id="Shape (Stroke)_4" d="M6.553 3.276a.5.5 0 0 1 .67-.223l10 5a.5.5 0 1 1-.447.894l-10-5a.5.5 0 0 1-.223-.67Z"/></g></symbol><symbol xmlns="http://www.w3.org/2000/svg" id="phone" fill="none" viewBox="0 0 24 24"><g id="feather-icon / phone"><path id="Vector 188 (Stroke)" fill="currentColor" fill-rule="evenodd" d="M.53 5.628C.3 3.782 1.88 2.5 3.577 2.5h3.591a1.5 1.5 0 0 1 1.476 1.232l.606 3.335a3.5 3.5 0 0 1-.71 2.812l-.724.904a.467.467 0 0 0-.04.537c.469.766 1.314 2.06 2.08 2.826.767.767 2.06 1.612 2.826 2.081.163.1.376.088.538-.04l.904-.724a3.5 3.5 0 0 1 2.812-.71l3.335.606a1.5 1.5 0 0 1 1.232 1.476v3.347c0 1.821-1.451 3.442-3.385 3.131-3.313-.533-8.048-2.236-11.982-6.473C2.31 12.72.893 8.515.531 5.628ZM3.577 3.5c-1.265 0-2.19.91-2.053 2.003.338 2.692 1.671 6.7 5.345 10.657 3.75 4.038 8.263 5.66 11.408 6.166 1.194.192 2.226-.797 2.226-2.144v-3.347a.5.5 0 0 0-.41-.492l-3.336-.607a2.5 2.5 0 0 0-2.009.508l-.904.723a1.465 1.465 0 0 1-1.684.113c-.764-.468-2.151-1.367-3.01-2.226-.86-.86-1.76-2.248-2.227-3.01a1.467 1.467 0 0 1 .113-1.685l.723-.905a2.5 2.5 0 0 0 .507-2.009L7.66 3.911a.5.5 0 0 0-.492-.411H3.576Z" clip-rule="evenodd"/></g></symbol><symbol xmlns="http://www.w3.org/2000/svg" id="search" fill="none" viewBox="0 0 24 24"><path fill="currentColor" fill-rule="evenodd" d="M2.5 10.5a8 8 0 1 1 16 0 8 8 0 0 1-16 0Zm8-7a7 7 0 1 0 0 14 7 7 0 0 0 0-14Z" clip-rule="evenodd"/><path fill="currentColor" fill-rule="evenodd" d="M15.446 15.446a.5.5 0 0 1 .707 0l5.2 5.2a.5.5 0 0 1-.707.707l-5.2-5.2a.5.5 0 0 1 0-.707Z" clip-rule="evenodd"/></symbol><symbol xmlns="http://www.w3.org/2000/svg" id="shopping-cart copy" fill="none" viewBox="0 0 24 24"><g id="feather-icon / shopping-cart" fill="currentColor" fill-rule="evenodd" clip-rule="evenodd"><path id="Oval (Stroke)" d="M5.5 21a2.5 2.5 0 1 1 5 0 2.5 2.5 0 0 1-5 0ZM8 19.5a1.5 1.5 0 1 0 0 3 1.5 1.5 0 0 0 0-3Z"/><path id="Oval (Stroke)_2" d="M17.5 21a2.5 2.5 0 1 1 5 0 2.5 2.5 0 0 1-5 0Zm2.5-1.5a1.5 1.5 0 1 0 0 3 1.5 1.5 0 0 0 0-3Z"/><path id="Union" d="M1 .5a.5.5 0 0 0 0 1h3.58c.758 4.291 1.523 8.564 2.17 12.87a2.5 2.5 0 0 0 2.472 2.13H19.36a2.5 2.5 0 0 0 2.451-2.01l1.44-7.196A1.5 1.5 0 0 0 21.778 5.5H7.16a1.49 1.49 0 0 0-.816.24L5.492.914A.5.5 0 0 0 5 .5H1Zm5.666 6.574A.5.5 0 0 1 7.16 6.5h14.62a.5.5 0 0 1 .49.598l-1.44 7.196a1.5 1.5 0 0 1-1.47 1.206H9.222a1.5 1.5 0 0 1-1.484-1.277L6.666 7.074Z"/></g></symbol><symbol xmlns="http://www.w3.org/2000/svg" id="shopping-cart" fill="none" viewBox="0 0 24 24"><g fill="currentColor" fill-rule="evenodd" clip-rule="evenodd"><path d="M5.5 21a2.5 2.5 0 1 1 5 0 2.5 2.5 0 0 1-5 0ZM8 19.5a1.5 1.5 0 1 0 0 3 1.5 1.5 0 0 0 0-3Zm9.5 1.5a2.5 2.5 0 1 1 5 0 2.5 2.5 0 0 1-5 0Zm2.5-1.5a1.5 1.5 0 1 0 0 3 1.5 1.5 0 0 0 0-3ZM1 .5a.5.5 0 0 0 0 1h3.58c.758 4.291 1.523 8.564 2.17 12.87a2.5 2.5 0 0 0 2.472 2.13H19.36a2.5 2.5 0 0 0 2.451-2.01l1.44-7.196A1.5 1.5 0 0 0 21.778 5.5H7.16a1.49 1.49 0 0 0-.816.24L5.492.914A.5.5 0 0 0 5 .5H1Zm5.666 6.574A.5.5 0 0 1 7.16 6.5h14.62a.5.5 0 0 1 .49.598l-1.44 7.196a1.5 1.5 0 0 1-1.47 1.206H9.222a1.5 1.5 0 0 1-1.484-1.277L6.666 7.074Z"/></g></symbol><symbol xmlns="http://www.w3.org/2000/svg" id="star" fill="none" viewBox="0 0 24 24"><path fill="currentColor" d="M11.103 1.817a1 1 0 0 1 1.794 0l2.397 4.857a1 1 0 0 0 .753.547l5.36.78a1 1 0 0 1 .555 1.705l-3.88 3.781a1 1 0 0 0-.287.885l.916 5.34a1 1 0 0 1-1.451 1.053l-4.795-2.52a1 1 0 0 0-.93 0l-4.795 2.52a1 1 0 0 1-1.45-1.054l.915-5.339a1 1 0 0 0-.288-.885l-3.879-3.78A1 1 0 0 1 2.592 8l5.361-.779a1 1 0 0 0 .753-.547l2.397-4.857Z"/></symbol><symbol xmlns="http://www.w3.org/2000/svg" id="warning-alert" fill="none" viewBox="0 0 24 24"><path fill="currentColor" fill-rule="evenodd" d="M1.5 12C1.5 6.201 6.201 1.5 12 1.5S22.5 6.201 22.5 12 17.799 22.5 12 22.5 1.5 17.799 1.5 12ZM12 2.5a9.5 9.5 0 1 0 0 19 9.5 9.5 0 0 0 0-19Z" clip-rule="evenodd"/><path fill="currentColor" fill-rule="evenodd" d="M12 7.5a.5.5 0 0 1 .5.5v4a.5.5 0 0 1-1 0V8a.5.5 0 0 1 .5-.5Z" clip-rule="evenodd"/><path fill="currentColor" d="M13 16a1 1 0 1 1-2 0 1 1 0 0 1 2 0Z"/></symbol><symbol xmlns="http://www.w3.org/2000/svg" id="facebook" fill="none" viewBox="0 0 20 20"><g id="Group 465"><path id="Subtract" fill="currentColor" fill-rule="evenodd" d="M2.5 0h15C18.879 0 20 1.121 20 2.5v15c0 1.379-1.121 2.5-2.5 2.5h-3.75v-6.875h1.875L16.875 10H13.75V7.5c0-.634.473-.63 1.085-.626l.165.001h1.25V3.75h-2.5A3.75 3.75 0 0 0 10 7.5V10H7.5v3.125H10V20H2.5A2.503 2.503 0 0 1 0 17.5v-15C0 1.121 1.121 0 2.5 0Z" clip-rule="evenodd"/></g></symbol><symbol xmlns="http://www.w3.org/2000/svg" id="instagram" fill="none" viewBox="0 0 20 20"><g id="Group 469"><path fill="currentColor" fill-rule="evenodd" d="M13.75 0h-7.5A6.25 6.25 0 0 0 0 6.25v7.5A6.25 6.25 0 0 0 6.25 20h7.5A6.25 6.25 0 0 0 20 13.75v-7.5A6.25 6.25 0 0 0 13.75 0Zm4.375 13.75a4.38 4.38 0 0 1-4.375 4.375h-7.5a4.38 4.38 0 0 1-4.375-4.375v-7.5A4.38 4.38 0 0 1 6.25 1.875h7.5a4.38 4.38 0 0 1 4.375 4.375v7.5ZM10 5.2a4.8 4.8 0 1 0 0 9.6 4.8 4.8 0 0 0 0-9.6Zm0 7.8c-1.653 0-3-1.346-3-3 0-1.655 1.347-3 3-3 1.654 0 3 1.345 3 3 0 1.654-1.346 3-3 3Zm6-8.4a.6.6 0 1 1-1.2 0 .6.6 0 0 1 1.2 0Z" clip-rule="evenodd"/></g><defs><linearGradient id="a" x1="2.929" x2="17.071" y1="17.071" y2="2.929" gradientUnits="userSpaceOnUse"><stop stop-color="#FFC107"/><stop offset=".507" stop-color="#F44336"/><stop offset=".99" stop-color="#9C27B0"/></linearGradient></defs></symbol><symbol xmlns="http://www.w3.org/2000/svg" id="odnoklassniki" fill="none" viewBox="0 0 24 24"><g id="social / ok"><path id="Vector" fill="currentColor" d="M11.792 5.025a2.14 2.14 0 0 1 2.137 2.137 2.14 2.14 0 0 1-2.137 2.136 2.14 2.14 0 0 1-2.137-2.136 2.14 2.14 0 0 1 2.137-2.137Zm0 7.297a5.166 5.166 0 0 0 5.162-5.16A5.167 5.167 0 0 0 11.792 2 5.168 5.168 0 0 0 6.63 7.162a5.166 5.166 0 0 0 5.162 5.16Zm2.088 4.21a9.663 9.663 0 0 0 2.997-1.24 1.512 1.512 0 0 0-1.61-2.561 6.555 6.555 0 0 1-6.95 0 1.51 1.51 0 0 0-2.085.475 1.512 1.512 0 0 0 .474 2.085c.922.58 1.935 1 2.997 1.241l-2.886 2.886a1.512 1.512 0 0 0 2.14 2.139l2.834-2.836 2.837 2.836a1.509 1.509 0 0 0 2.137 0 1.507 1.507 0 0 0 0-2.138l-2.885-2.887Z"/></g></symbol><symbol xmlns="http://www.w3.org/2000/svg" id="vkontakte" fill="none" viewBox="0 0 24 24"><g id="social / vkontakte"><path fill="currentColor" d="M11.786 17.363h1.195s.361-.04.545-.238c.17-.183.164-.525.164-.525s-.024-1.604.721-1.84c.734-.233 1.677 1.55 2.675 2.236.755.519 1.33.405 1.33.405l2.67-.038s1.398-.086.736-1.185c-.054-.09-.386-.812-1.987-2.297-1.675-1.555-1.45-1.303.568-3.992 1.229-1.637 1.72-2.638 1.566-3.065-.146-.408-1.05-.3-1.05-.3l-3.005.017s-.223-.03-.389.07c-.161.097-.265.322-.265.322s-.476 1.267-1.11 2.345c-1.339 2.274-1.875 2.394-2.094 2.252-.509-.328-.381-1.322-.381-2.027 0-2.204.333-3.123-.652-3.36-.327-.08-.567-.132-1.404-.14-1.072-.012-1.98.003-2.495.255-.342.167-.606.54-.445.562.199.026.65.121.888.446.309.42.297 1.362.297 1.362s.178 2.594-.413 2.916c-.407.221-.963-.23-2.157-2.294C6.682 8.194 6.22 7.025 6.22 7.025s-.088-.217-.247-.334a1.273 1.273 0 0 0-.463-.186l-2.857.018s-.43.012-.587.198c-.14.167-.011.51-.011.51s2.238 5.233 4.77 7.872c2.324 2.42 4.962 2.26 4.962 2.26Z"/></g></symbol></svg>