<svg width="0" height="0"><symbol xmlns="http://www.w3.org/2000/svg" id="alert-circle" fill="none" viewBox="0 0 24 24"><path fill="currentColor" fill-rule="evenodd" d="M1.5 12C1.5 6.201 6.201 1.5 12 1.5S22.5 6.201 22.5 12 17.799 22.5 12 22.5 1.5 17.799 1.5 12ZM12 2.5a9.5 9.5 0 1 0 0 19 9.5 9.5 0 0 0 0-19Z" clip-rule="evenodd"/><path fill="currentColor" fill-rule="evenodd" d="M12 7.5a.5.5 0 0 1 .5.5v4a.5.5 0 0 1-1 0V8a.5.5 0 0 1 .5-.5Z" clip-rule="evenodd"/><path fill="currentColor" d="M13 16a1 1 0 1 1-2 0 1 1 0 0 1 2 0Z"/></symbol><symbol xmlns="http://www.w3.org/2000/svg" id="burger" fill="none" viewBox="0 0 24 24"><g id="feather-icon / menu" fill="currentColor" fill-rule="evenodd" clip-rule="evenodd"><path id="Shape (Stroke)" d="M2.5 12a.5.5 0 0 1 .5-.5h18a.5.5 0 0 1 0 1H3a.5.5 0 0 1-.5-.5Z"/><path id="Shape (Stroke)_2" d="M2.5 6a.5.5 0 0 1 .5-.5h18a.5.5 0 0 1 0 1H3a.5.5 0 0 1-.5-.5Z"/><path id="Shape (Stroke)_3" d="M2.5 18a.5.5 0 0 1 .5-.5h18a.5.5 0 0 1 0 1H3a.5.5 0 0 1-.5-.5Z"/></g></symbol><symbol xmlns="http://www.w3.org/2000/svg" id="chevron" fill="none" viewBox="0 0 32 32"><path fill="currentColor" fill-rule="evenodd" d="M20.47 7.529c.26.26.26.682 0 .943L12.942 16l7.528 7.529a.667.667 0 1 1-.943.943l-8-8a.667.667 0 0 1 0-.943l8-8c.26-.26.683-.26.943 0Z" clip-rule="evenodd"/></symbol><symbol xmlns="http://www.w3.org/2000/svg" id="heart" fill="none" viewBox="0 0 24 24"><path fill="currentColor" fill-rule="evenodd" d="M12.705 4.256a6 6 0 1 1 8.487 8.487l-8.84 8.84a.5.5 0 0 1-.707 0l-8.84-8.84a6.001 6.001 0 1 1 8.487-8.487l.706.707.707-.707Zm4.243-.758a5 5 0 0 0-3.536 1.465l-1.06 1.06a.5.5 0 0 1-.707 0l-1.06-1.06a5.001 5.001 0 1 0-7.073 7.073l8.486 8.487 8.487-8.487a5 5 0 0 0-3.537-8.538Z" clip-rule="evenodd"/></symbol><symbol xmlns="http://www.w3.org/2000/svg" id="message" fill="none" viewBox="0 0 18 18"><path fill="currentColor" fill-rule="evenodd" d="M9.374 2.625a5.91 5.91 0 0 0-2.68.635h-.001a6 6 0 0 0-3.318 5.365v.001a5.91 5.91 0 0 0 .635 2.68c.045.09.052.193.02.288l-1.187 3.563 3.563-1.188a.375.375 0 0 1 .288.021c.83.42 1.75.637 2.68.635a6 6 0 0 0 5.366-3.318v-.001c.42-.83.637-1.75.635-2.68l.375-.001h-.375v-.364A5.985 5.985 0 0 0 9.74 2.625h-.366Zm6.751 5.999a6.66 6.66 0 0 1-.715 3.02 6.75 6.75 0 0 1-6.034 3.731 6.659 6.659 0 0 1-2.878-.646l-4.13 1.377a.375.375 0 0 1-.474-.475l1.377-4.129a6.66 6.66 0 0 1-.646-2.878L3 8.625h-.375A6.75 6.75 0 0 1 6.357 2.59h-.001l.169.335-.168-.335a6.66 6.66 0 0 1 3.018-.715h.395a6.735 6.735 0 0 1 6.355 6.375v.374Zm-6.75 6.751V15l.001.375Z" clip-rule="evenodd"/></symbol><symbol xmlns="http://www.w3.org/2000/svg" id="search" fill="none" viewBox="0 0 24 24"><path fill="currentColor" fill-rule="evenodd" d="M2.5 10.5a8 8 0 1 1 16 0 8 8 0 0 1-16 0Zm8-7a7 7 0 1 0 0 14 7 7 0 0 0 0-14Z" clip-rule="evenodd"/><path fill="currentColor" fill-rule="evenodd" d="M15.446 15.446a.5.5 0 0 1 .707 0l5.2 5.2a.5.5 0 0 1-.707.707l-5.2-5.2a.5.5 0 0 1 0-.707Z" clip-rule="evenodd"/></symbol><symbol xmlns="http://www.w3.org/2000/svg" id="star" fill="none" viewBox="0 0 24 24"><path fill="currentColor" d="M11.103 1.817a1 1 0 0 1 1.794 0l2.397 4.857a1 1 0 0 0 .753.547l5.36.78a1 1 0 0 1 .555 1.705l-3.88 3.781a1 1 0 0 0-.287.885l.916 5.34a1 1 0 0 1-1.451 1.053l-4.795-2.52a1 1 0 0 0-.93 0l-4.795 2.52a1 1 0 0 1-1.45-1.054l.915-5.339a1 1 0 0 0-.288-.885l-3.879-3.78A1 1 0 0 1 2.592 8l5.361-.779a1 1 0 0 0 .753-.547l2.397-4.857Z"/></symbol><symbol xmlns="http://www.w3.org/2000/svg" id="warning-alert" fill="none" viewBox="0 0 24 24"><path fill="currentColor" fill-rule="evenodd" d="M1.5 12C1.5 6.201 6.201 1.5 12 1.5S22.5 6.201 22.5 12 17.799 22.5 12 22.5 1.5 17.799 1.5 12ZM12 2.5a9.5 9.5 0 1 0 0 19 9.5 9.5 0 0 0 0-19Z" clip-rule="evenodd"/><path fill="currentColor" fill-rule="evenodd" d="M12 7.5a.5.5 0 0 1 .5.5v4a.5.5 0 0 1-1 0V8a.5.5 0 0 1 .5-.5Z" clip-rule="evenodd"/><path fill="currentColor" d="M13 16a1 1 0 1 1-2 0 1 1 0 0 1 2 0Z"/></symbol><symbol xmlns="http://www.w3.org/2000/svg" id="shopping-cart" fill="none" viewBox="0 0 24 24"><g id="feather-icon / shopping-cart" fill="currentColor" fill-rule="evenodd" clip-rule="evenodd"><path id="Oval (Stroke)" d="M5.5 21a2.5 2.5 0 1 1 5 0 2.5 2.5 0 0 1-5 0ZM8 19.5a1.5 1.5 0 1 0 0 3 1.5 1.5 0 0 0 0-3Z"/><path id="Oval (Stroke)_2" d="M17.5 21a2.5 2.5 0 1 1 5 0 2.5 2.5 0 0 1-5 0Zm2.5-1.5a1.5 1.5 0 1 0 0 3 1.5 1.5 0 0 0 0-3Z"/><path id="Union" d="M1 .5a.5.5 0 0 0 0 1h3.58c.758 4.291 1.523 8.564 2.17 12.87a2.5 2.5 0 0 0 2.472 2.13H19.36a2.5 2.5 0 0 0 2.451-2.01l1.44-7.196A1.5 1.5 0 0 0 21.778 5.5H7.16a1.49 1.49 0 0 0-.816.24L5.492.914A.5.5 0 0 0 5 .5H1Zm5.666 6.574A.5.5 0 0 1 7.16 6.5h14.62a.5.5 0 0 1 .49.598l-1.44 7.196a1.5 1.5 0 0 1-1.47 1.206H9.222a1.5 1.5 0 0 1-1.484-1.277L6.666 7.074Z"/></g></symbol><symbol xmlns="http://www.w3.org/2000/svg" id="shopping-cart copy" fill="none" viewBox="0 0 24 24"><g fill="currentColor" fill-rule="evenodd" clip-rule="evenodd"><path d="M5.5 21a2.5 2.5 0 1 1 5 0 2.5 2.5 0 0 1-5 0ZM8 19.5a1.5 1.5 0 1 0 0 3 1.5 1.5 0 0 0 0-3Zm9.5 1.5a2.5 2.5 0 1 1 5 0 2.5 2.5 0 0 1-5 0Zm2.5-1.5a1.5 1.5 0 1 0 0 3 1.5 1.5 0 0 0 0-3ZM1 .5a.5.5 0 0 0 0 1h3.58c.758 4.291 1.523 8.564 2.17 12.87a2.5 2.5 0 0 0 2.472 2.13H19.36a2.5 2.5 0 0 0 2.451-2.01l1.44-7.196A1.5 1.5 0 0 0 21.778 5.5H7.16a1.49 1.49 0 0 0-.816.24L5.492.914A.5.5 0 0 0 5 .5H1Zm5.666 6.574A.5.5 0 0 1 7.16 6.5h14.62a.5.5 0 0 1 .49.598l-1.44 7.196a1.5 1.5 0 0 1-1.47 1.206H9.222a1.5 1.5 0 0 1-1.484-1.277L6.666 7.074Z"/></g></symbol><symbol xmlns="http://www.w3.org/2000/svg" id="package" fill="none" viewBox="0 0 24 24"><g id="Frame 211" fill="currentColor" fill-rule="evenodd" clip-rule="evenodd"><path d="m11.332 1.898-7.998 4h-.001A1.5 1.5 0 0 0 2.5 7.24v9.524a1.5 1.5 0 0 0 .824 1.349l8 4a1.5 1.5 0 0 0 1.342 0l8-4h.002a1.5 1.5 0 0 0 .832-1.343V7.24a1.5 1.5 0 0 0-.832-1.342h-.002l-7.998-4a1.502 1.502 0 0 0-1.335 0Zm-.445-.896a2.5 2.5 0 0 1 2.226 0l8 4A2.5 2.5 0 0 1 22.5 7.24v9.53a2.5 2.5 0 0 1-1.387 2.237l-8 4a2.5 2.5 0 0 1-2.237 0l-8-4A2.5 2.5 0 0 1 1.5 16.758V7.24a2.5 2.5 0 0 1 1.387-2.237l8-4Z"/><path d="M1.873 5.936a.5.5 0 0 1 .67-.223L12 10.44l9.456-4.728a.5.5 0 1 1 .448.894l-9.68 4.84a.5.5 0 0 1-.448 0l-9.68-4.84a.5.5 0 0 1-.223-.67Z"/><path d="M12 10.5a.5.5 0 0 1 .5.5v11.76a.5.5 0 0 1-1 0V11a.5.5 0 0 1 .5-.5Z"/><path id="Shape (Stroke)_4" d="M6.553 3.276a.5.5 0 0 1 .67-.223l10 5a.5.5 0 1 1-.447.894l-10-5a.5.5 0 0 1-.223-.67Z"/></g></symbol></svg>