<svg width="0" height="0"><symbol xmlns="http://www.w3.org/2000/svg" id="alert-circle" fill="none" viewBox="0 0 24 24"><path fill="currentColor" fill-rule="evenodd" d="M1.5 12C1.5 6.201 6.201 1.5 12 1.5S22.5 6.201 22.5 12 17.799 22.5 12 22.5 1.5 17.799 1.5 12ZM12 2.5a9.5 9.5 0 1 0 0 19 9.5 9.5 0 0 0 0-19Z" clip-rule="evenodd"/><path fill="currentColor" fill-rule="evenodd" d="M12 7.5a.5.5 0 0 1 .5.5v4a.5.5 0 0 1-1 0V8a.5.5 0 0 1 .5-.5Z" clip-rule="evenodd"/><path fill="currentColor" d="M13 16a1 1 0 1 1-2 0 1 1 0 0 1 2 0Z"/></symbol><symbol xmlns="http://www.w3.org/2000/svg" id="burger" fill="none" viewBox="0 0 24 24"><g id="feather-icon / menu" fill="currentColor" fill-rule="evenodd" clip-rule="evenodd"><path id="Shape (Stroke)" d="M2.5 12a.5.5 0 0 1 .5-.5h18a.5.5 0 0 1 0 1H3a.5.5 0 0 1-.5-.5Z"/><path id="Shape (Stroke)_2" d="M2.5 6a.5.5 0 0 1 .5-.5h18a.5.5 0 0 1 0 1H3a.5.5 0 0 1-.5-.5Z"/><path id="Shape (Stroke)_3" d="M2.5 18a.5.5 0 0 1 .5-.5h18a.5.5 0 0 1 0 1H3a.5.5 0 0 1-.5-.5Z"/></g></symbol><symbol xmlns="http://www.w3.org/2000/svg" id="chevron" fill="none" viewBox="0 0 32 32"><path fill="currentColor" fill-rule="evenodd" d="M20.47 7.529c.26.26.26.682 0 .943L12.942 16l7.528 7.529a.667.667 0 1 1-.943.943l-8-8a.667.667 0 0 1 0-.943l8-8c.26-.26.683-.26.943 0Z" clip-rule="evenodd"/></symbol><symbol xmlns="http://www.w3.org/2000/svg" id="heart" fill="none" viewBox="0 0 24 24"><path fill="currentColor" fill-rule="evenodd" d="M12.705 4.256a6 6 0 1 1 8.487 8.487l-8.84 8.84a.5.5 0 0 1-.707 0l-8.84-8.84a6.001 6.001 0 1 1 8.487-8.487l.706.707.707-.707Zm4.243-.758a5 5 0 0 0-3.536 1.465l-1.06 1.06a.5.5 0 0 1-.707 0l-1.06-1.06a5.001 5.001 0 1 0-7.073 7.073l8.486 8.487 8.487-8.487a5 5 0 0 0-3.537-8.538Z" clip-rule="evenodd"/></symbol><symbol xmlns="http://www.w3.org/2000/svg" id="message" fill="none" viewBox="0 0 18 18"><path fill="currentColor" fill-rule="evenodd" d="M9.374 2.625a5.91 5.91 0 0 0-2.68.635h-.001a6 6 0 0 0-3.318 5.365v.001a5.91 5.91 0 0 0 .635 2.68c.045.09.052.193.02.288l-1.187 3.563 3.563-1.188a.375.375 0 0 1 .288.021c.83.42 1.75.637 2.68.635a6 6 0 0 0 5.366-3.318v-.001c.42-.83.637-1.75.635-2.68l.375-.001h-.375v-.364A5.985 5.985 0 0 0 9.74 2.625h-.366Zm6.751 5.999a6.66 6.66 0 0 1-.715 3.02 6.75 6.75 0 0 1-6.034 3.731 6.659 6.659 0 0 1-2.878-.646l-4.13 1.377a.375.375 0 0 1-.474-.475l1.377-4.129a6.66 6.66 0 0 1-.646-2.878L3 8.625h-.375A6.75 6.75 0 0 1 6.357 2.59h-.001l.169.335-.168-.335a6.66 6.66 0 0 1 3.018-.715h.395a6.735 6.735 0 0 1 6.355 6.375v.374Zm-6.75 6.751V15l.001.375Z" clip-rule="evenodd"/></symbol><symbol xmlns="http://www.w3.org/2000/svg" id="search" fill="none" viewBox="0 0 24 24"><path fill="currentColor" fill-rule="evenodd" d="M2.5 10.5a8 8 0 1 1 16 0 8 8 0 0 1-16 0Zm8-7a7 7 0 1 0 0 14 7 7 0 0 0 0-14Z" clip-rule="evenodd"/><path fill="currentColor" fill-rule="evenodd" d="M15.446 15.446a.5.5 0 0 1 .707 0l5.2 5.2a.5.5 0 0 1-.707.707l-5.2-5.2a.5.5 0 0 1 0-.707Z" clip-rule="evenodd"/></symbol><symbol xmlns="http://www.w3.org/2000/svg" id="star" fill="none" viewBox="0 0 24 24"><path fill="currentColor" d="M11.103 1.817a1 1 0 0 1 1.794 0l2.397 4.857a1 1 0 0 0 .753.547l5.36.78a1 1 0 0 1 .555 1.705l-3.88 3.781a1 1 0 0 0-.287.885l.916 5.34a1 1 0 0 1-1.451 1.053l-4.795-2.52a1 1 0 0 0-.93 0l-4.795 2.52a1 1 0 0 1-1.45-1.054l.915-5.339a1 1 0 0 0-.288-.885l-3.879-3.78A1 1 0 0 1 2.592 8l5.361-.779a1 1 0 0 0 .753-.547l2.397-4.857Z"/></symbol><symbol xmlns="http://www.w3.org/2000/svg" id="warning-alert" fill="none" viewBox="0 0 24 24"><path fill="currentColor" fill-rule="evenodd" d="M1.5 12C1.5 6.201 6.201 1.5 12 1.5S22.5 6.201 22.5 12 17.799 22.5 12 22.5 1.5 17.799 1.5 12ZM12 2.5a9.5 9.5 0 1 0 0 19 9.5 9.5 0 0 0 0-19Z" clip-rule="evenodd"/><path fill="currentColor" fill-rule="evenodd" d="M12 7.5a.5.5 0 0 1 .5.5v4a.5.5 0 0 1-1 0V8a.5.5 0 0 1 .5-.5Z" clip-rule="evenodd"/><path fill="currentColor" d="M13 16a1 1 0 1 1-2 0 1 1 0 0 1 2 0Z"/></symbol></svg>